<svg width="250" height="81" viewBox="0 0 250 81" fill="none" xmlns="http://www.w3.org/2000/svg">
<rect width="250" height="81" rx="12" fill="black"/>
<path d="M78.4205 30.1989C77.483 30.1989 76.6473 30.0379 75.9134 29.7159C75.1842 29.3939 74.6042 28.9465 74.1733 28.3736C73.7472 27.7959 73.5152 27.1259 73.4773 26.3636H75.267C75.3049 26.8324 75.4659 27.2372 75.75 27.5781C76.0341 27.9143 76.4058 28.1747 76.8651 28.3594C77.3243 28.544 77.8333 28.6364 78.392 28.6364C79.017 28.6364 79.571 28.5275 80.054 28.3097C80.5369 28.0919 80.9157 27.7888 81.1903 27.4006C81.465 27.0123 81.6023 26.5625 81.6023 26.0511C81.6023 25.5161 81.4697 25.045 81.2045 24.6378C80.9394 24.2259 80.5511 23.9039 80.0398 23.6719C79.5284 23.4399 78.9034 23.3239 78.1648 23.3239H77V21.7614H78.1648C78.7424 21.7614 79.2491 21.6572 79.6847 21.4489C80.125 21.2405 80.4683 20.947 80.7145 20.5682C80.9654 20.1894 81.0909 19.7443 81.0909 19.233C81.0909 18.7405 80.982 18.312 80.7642 17.9474C80.5464 17.5829 80.2386 17.2988 79.8409 17.0952C79.4479 16.8916 78.9839 16.7898 78.4489 16.7898C77.947 16.7898 77.4735 16.8821 77.0284 17.0668C76.5881 17.2467 76.2282 17.5095 75.9489 17.8551C75.6695 18.196 75.518 18.608 75.4943 19.0909H73.7898C73.8182 18.3286 74.0478 17.661 74.4787 17.0881C74.9096 16.5104 75.473 16.0606 76.169 15.7386C76.8698 15.4167 77.6392 15.2557 78.4773 15.2557C79.3769 15.2557 80.1487 15.438 80.7926 15.8026C81.4366 16.1624 81.9313 16.6383 82.277 17.2301C82.6226 17.822 82.7955 18.4612 82.7955 19.1477C82.7955 19.9669 82.58 20.6652 82.1491 21.2429C81.723 21.8205 81.143 22.2206 80.4091 22.4432V22.5568C81.3277 22.7083 82.045 23.099 82.5611 23.7287C83.0772 24.3537 83.3352 25.1278 83.3352 26.0511C83.3352 26.8419 83.1198 27.5521 82.6889 28.1818C82.2628 28.8068 81.6804 29.2992 80.9418 29.6591C80.2031 30.0189 79.3627 30.1989 78.4205 30.1989ZM89.4787 30.2557C88.7874 30.2557 88.16 30.1255 87.5966 29.8651C87.0331 29.5999 86.5857 29.2188 86.2543 28.7216C85.9228 28.2197 85.7571 27.6136 85.7571 26.9034C85.7571 26.2784 85.8802 25.7718 86.1264 25.3835C86.3726 24.9905 86.7017 24.6828 87.1136 24.4602C87.5256 24.2377 87.9801 24.072 88.4773 23.9631C88.9792 23.8494 89.4834 23.7595 89.9901 23.6932C90.6529 23.608 91.1903 23.544 91.6023 23.5014C92.0189 23.4541 92.322 23.3759 92.5114 23.267C92.7055 23.1581 92.8026 22.9687 92.8026 22.6989V22.642C92.8026 21.9413 92.6108 21.3968 92.2273 21.0085C91.8485 20.6203 91.2732 20.4261 90.5014 20.4261C89.7012 20.4261 89.0739 20.6013 88.6193 20.9517C88.1648 21.3021 87.8452 21.6761 87.6605 22.0739L86.0696 21.5057C86.3537 20.8428 86.7325 20.3267 87.206 19.9574C87.6842 19.5833 88.205 19.3229 88.7685 19.1761C89.3366 19.0246 89.8954 18.9489 90.4446 18.9489C90.795 18.9489 91.1974 18.9915 91.652 19.0767C92.1113 19.1572 92.554 19.3253 92.9801 19.581C93.411 19.8366 93.7685 20.2225 94.0526 20.7386C94.3366 21.2547 94.4787 21.946 94.4787 22.8125V30H92.8026V28.5227H92.7173C92.6037 28.7595 92.4143 29.0128 92.1491 29.2827C91.884 29.5526 91.5313 29.7822 91.0909 29.9716C90.6506 30.161 90.1132 30.2557 89.4787 30.2557ZM89.7344 28.75C90.3973 28.75 90.956 28.6198 91.4105 28.3594C91.8698 28.099 92.2154 27.7628 92.4474 27.3509C92.6842 26.9389 92.8026 26.5057 92.8026 26.0511V24.517C92.7315 24.6023 92.5753 24.6804 92.3338 24.7514C92.0971 24.8177 91.8224 24.8769 91.5099 24.929C91.2022 24.9763 90.9015 25.0189 90.608 25.0568C90.3191 25.09 90.0848 25.1184 89.9048 25.142C89.4692 25.1989 89.062 25.2912 88.6832 25.419C88.3092 25.5421 88.0062 25.7292 87.7741 25.9801C87.5469 26.2263 87.4332 26.5625 87.4332 26.9886C87.4332 27.571 87.6487 28.0114 88.0795 28.3097C88.5152 28.6032 89.0668 28.75 89.7344 28.75ZM104.271 19.0909V20.6534H99.2141V30H97.538V19.0909H104.271ZM106.718 34.0909V19.0909H108.337V20.8239H108.536C108.659 20.6345 108.829 20.393 109.047 20.0994C109.27 19.8011 109.587 19.536 109.999 19.304C110.416 19.0672 110.979 18.9489 111.689 18.9489C112.608 18.9489 113.417 19.1785 114.118 19.6378C114.819 20.0971 115.366 20.7481 115.759 21.5909C116.152 22.4337 116.348 23.428 116.348 24.5739C116.348 25.7292 116.152 26.7306 115.759 27.5781C115.366 28.4209 114.821 29.0743 114.125 29.5384C113.429 29.9976 112.627 30.2273 111.718 30.2273C111.017 30.2273 110.456 30.1113 110.034 29.8793C109.613 29.6425 109.289 29.375 109.061 29.0767C108.834 28.7737 108.659 28.5227 108.536 28.3239H108.394V34.0909H106.718ZM108.365 24.5455C108.365 25.3693 108.486 26.0961 108.728 26.7259C108.969 27.3509 109.322 27.8409 109.786 28.196C110.25 28.5464 110.818 28.7216 111.49 28.7216C112.191 28.7216 112.776 28.5369 113.245 28.1676C113.718 27.7936 114.073 27.2917 114.31 26.6619C114.551 26.0275 114.672 25.322 114.672 24.5455C114.672 23.7784 114.554 23.0871 114.317 22.4716C114.085 21.8513 113.732 21.3613 113.259 21.0014C112.79 20.6368 112.201 20.4545 111.49 20.4545C110.809 20.4545 110.236 20.6274 109.772 20.973C109.308 21.3139 108.957 21.7921 108.721 22.4077C108.484 23.0185 108.365 23.7311 108.365 24.5455ZM119.594 34.0909C119.31 34.0909 119.057 34.0672 118.834 34.0199C118.612 33.9773 118.458 33.9347 118.373 33.892L118.799 32.4148C119.206 32.5189 119.566 32.5568 119.878 32.5284C120.191 32.5 120.468 32.3603 120.709 32.1094C120.955 31.8632 121.18 31.4631 121.384 30.9091L121.696 30.0568L117.662 19.0909H119.48L122.492 27.7841H122.605L125.617 19.0909H127.435L122.804 31.5909C122.596 32.1544 122.338 32.6207 122.03 32.9901C121.722 33.3641 121.365 33.6411 120.958 33.821C120.555 34.0009 120.101 34.0909 119.594 34.0909ZM128.966 27.2159H130.755C130.793 27.7083 131.016 28.0824 131.423 28.3381C131.835 28.5938 132.37 28.7216 133.028 28.7216C133.7 28.7216 134.276 28.5843 134.754 28.3097C135.232 28.0303 135.471 27.5805 135.471 26.9602C135.471 26.5956 135.381 26.2784 135.201 26.0085C135.021 25.7339 134.768 25.5208 134.441 25.3693C134.115 25.2178 133.729 25.142 133.284 25.142H131.409V23.6364H133.284C133.951 23.6364 134.444 23.4848 134.761 23.1818C135.083 22.8788 135.244 22.5 135.244 22.0455C135.244 21.5578 135.071 21.1671 134.725 20.8736C134.38 20.5753 133.89 20.4261 133.255 20.4261C132.616 20.4261 132.083 20.5705 131.657 20.8594C131.231 21.1435 131.006 21.5104 130.983 21.9602H129.221C129.24 21.3731 129.42 20.8546 129.761 20.4048C130.102 19.9503 130.566 19.5952 131.153 19.3395C131.74 19.0791 132.413 18.9489 133.17 18.9489C133.937 18.9489 134.602 19.0838 135.166 19.3537C135.734 19.6188 136.172 19.9811 136.48 20.4403C136.792 20.8949 136.949 21.411 136.949 21.9886C136.949 22.6042 136.776 23.1013 136.43 23.4801C136.084 23.8589 135.651 24.1288 135.13 24.2898V24.4034C135.542 24.4318 135.9 24.5644 136.203 24.8011C136.511 25.0331 136.75 25.3385 136.92 25.7173C137.091 26.0914 137.176 26.5057 137.176 26.9602C137.176 27.6231 136.998 28.2008 136.643 28.6932C136.288 29.1809 135.8 29.5597 135.18 29.8295C134.56 30.0947 133.852 30.2273 133.056 30.2273C132.285 30.2273 131.593 30.1018 130.983 29.8509C130.372 29.5952 129.886 29.2424 129.527 28.7926C129.172 28.3381 128.984 27.8125 128.966 27.2159ZM141.206 27.5284L146.462 19.0909H148.394V30H146.718V21.5625L141.49 30H139.53V19.0909H141.206V27.5284ZM149.979 20.6534V19.0909H158.843V20.6534H155.263V30H153.587V20.6534H149.979ZM162.737 23.0398H165.862C167.14 23.0398 168.118 23.3641 168.795 24.0128C169.472 24.6615 169.811 25.483 169.811 26.4773C169.811 27.1307 169.659 27.7249 169.356 28.2599C169.053 28.7902 168.608 29.214 168.021 29.5312C167.434 29.8438 166.714 30 165.862 30H161.288V19.0909H162.964V28.4375H165.862C166.525 28.4375 167.069 28.2623 167.495 27.9119C167.922 27.5616 168.135 27.1117 168.135 26.5625C168.135 25.9848 167.922 25.5137 167.495 25.1491C167.069 24.7846 166.525 24.6023 165.862 24.6023H162.737V23.0398Z" fill="white"/>
<path d="M75.9574 62H72.696L80.0241 41.6364H83.5739L90.902 62H87.6406L81.8835 45.3352H81.7244L75.9574 62ZM76.5043 54.0256H87.0838V56.6108H76.5043V54.0256ZM93.604 67.7273V46.7273H96.5075V49.2031H96.756C96.9284 48.8849 97.177 48.517 97.5018 48.0994C97.8266 47.6818 98.2773 47.3172 98.854 47.0057C99.4308 46.6875 100.193 46.5284 101.141 46.5284C102.374 46.5284 103.474 46.84 104.442 47.4631C105.41 48.0862 106.169 48.9844 106.719 50.1577C107.276 51.331 107.554 52.7429 107.554 54.3935C107.554 56.044 107.279 57.4593 106.729 58.6392C106.179 59.8125 105.423 60.7173 104.462 61.3537C103.501 61.9834 102.404 62.2983 101.171 62.2983C100.243 62.2983 99.4838 62.1425 98.8938 61.831C98.3105 61.5194 97.8531 61.1548 97.5217 60.7372C97.1902 60.3196 96.935 59.9484 96.756 59.6236H96.5771V67.7273H93.604ZM96.5174 54.3636C96.5174 55.4375 96.6732 56.3788 96.9847 57.1875C97.2963 57.9962 97.747 58.6293 98.337 59.0866C98.927 59.5374 99.6495 59.7628 100.505 59.7628C101.393 59.7628 102.135 59.5275 102.732 59.0568C103.328 58.5795 103.779 57.9332 104.084 57.1179C104.396 56.3026 104.551 55.3845 104.551 54.3636C104.551 53.3561 104.399 52.4512 104.094 51.6491C103.796 50.8471 103.345 50.214 102.742 49.75C102.145 49.286 101.4 49.054 100.505 49.054C99.6429 49.054 98.9137 49.276 98.3171 49.7202C97.7272 50.1643 97.2797 50.7841 96.9748 51.5795C96.6699 52.375 96.5174 53.303 96.5174 54.3636ZM110.885 67.7273V46.7273H113.789V49.2031H114.037C114.21 48.8849 114.458 48.517 114.783 48.0994C115.108 47.6818 115.559 47.3172 116.135 47.0057C116.712 46.6875 117.474 46.5284 118.422 46.5284C119.655 46.5284 120.756 46.84 121.723 47.4631C122.691 48.0862 123.45 48.9844 124 50.1577C124.557 51.331 124.836 52.7429 124.836 54.3935C124.836 56.044 124.56 57.4593 124.01 58.6392C123.46 59.8125 122.704 60.7173 121.743 61.3537C120.782 61.9834 119.685 62.2983 118.452 62.2983C117.524 62.2983 116.765 62.1425 116.175 61.831C115.592 61.5194 115.134 61.1548 114.803 60.7372C114.471 60.3196 114.216 59.9484 114.037 59.6236H113.858V67.7273H110.885ZM113.799 54.3636C113.799 55.4375 113.954 56.3788 114.266 57.1875C114.578 57.9962 115.028 58.6293 115.618 59.0866C116.208 59.5374 116.931 59.7628 117.786 59.7628C118.674 59.7628 119.417 59.5275 120.013 59.0568C120.61 58.5795 121.06 57.9332 121.365 57.1179C121.677 56.3026 121.833 55.3845 121.833 54.3636C121.833 53.3561 121.68 52.4512 121.375 51.6491C121.077 50.8471 120.626 50.214 120.023 49.75C119.426 49.286 118.681 49.054 117.786 49.054C116.924 49.054 116.195 49.276 115.598 49.7202C115.008 50.1643 114.561 50.7841 114.256 51.5795C113.951 52.375 113.799 53.303 113.799 54.3636ZM146.922 46.9858C146.816 46.0445 146.378 45.3153 145.609 44.7983C144.84 44.2746 143.873 44.0128 142.706 44.0128C141.871 44.0128 141.148 44.1454 140.538 44.4105C139.929 44.669 139.455 45.027 139.116 45.4844C138.785 45.9351 138.619 46.4489 138.619 47.0256C138.619 47.5095 138.732 47.9271 138.957 48.2784C139.189 48.6297 139.491 48.9247 139.862 49.1634C140.24 49.3954 140.644 49.5909 141.075 49.75C141.506 49.9025 141.92 50.0284 142.318 50.1278L144.307 50.6449C144.956 50.804 145.623 51.0194 146.305 51.2912C146.988 51.563 147.621 51.9209 148.205 52.3651C148.788 52.8092 149.259 53.3594 149.616 54.0156C149.981 54.6719 150.163 55.4574 150.163 56.3722C150.163 57.5256 149.865 58.5497 149.268 59.4446C148.679 60.3395 147.82 61.0455 146.693 61.5625C145.573 62.0795 144.217 62.3381 142.626 62.3381C141.102 62.3381 139.783 62.0961 138.669 61.6122C137.555 61.1283 136.684 60.4422 136.054 59.554C135.424 58.6591 135.076 57.5985 135.01 56.3722H138.092C138.152 57.108 138.391 57.7211 138.808 58.2116C139.232 58.6955 139.773 59.0568 140.429 59.2955C141.092 59.5275 141.818 59.6435 142.607 59.6435C143.475 59.6435 144.247 59.5076 144.923 59.2358C145.606 58.9574 146.143 58.5729 146.534 58.0824C146.925 57.5852 147.121 57.0052 147.121 56.3423C147.121 55.7391 146.948 55.2453 146.604 54.8608C146.266 54.4763 145.805 54.1581 145.222 53.9062C144.645 53.6544 143.992 53.4323 143.263 53.2401L140.857 52.5838C139.226 52.1397 137.933 51.4867 136.979 50.625C136.031 49.7633 135.557 48.6231 135.557 47.2045C135.557 46.0312 135.875 45.0071 136.511 44.1321C137.148 43.2571 138.009 42.5777 139.097 42.0938C140.184 41.6032 141.41 41.358 142.776 41.358C144.154 41.358 145.371 41.5999 146.425 42.0838C147.485 42.5677 148.321 43.2339 148.93 44.0824C149.54 44.9242 149.858 45.892 149.885 46.9858H146.922ZM160.725 46.7273V49.1136H152.383V46.7273H160.725ZM154.62 43.0682H157.593V57.5156C157.593 58.0923 157.68 58.5265 157.852 58.8182C158.024 59.1032 158.246 59.2988 158.518 59.4048C158.797 59.5043 159.098 59.554 159.423 59.554C159.662 59.554 159.87 59.5374 160.049 59.5043C160.228 59.4711 160.368 59.4446 160.467 59.4247L161.004 61.8807C160.832 61.947 160.586 62.0133 160.268 62.0795C159.95 62.1525 159.552 62.1922 159.075 62.1989C158.293 62.2121 157.564 62.0729 156.887 61.7812C156.211 61.4896 155.664 61.0388 155.247 60.429C154.829 59.8191 154.62 59.0535 154.62 58.1321V43.0682ZM170.283 62.3082C168.852 62.3082 167.602 61.9801 166.535 61.3239C165.468 60.6676 164.639 59.7495 164.049 58.5696C163.459 57.3897 163.164 56.0109 163.164 54.4332C163.164 52.849 163.459 51.4635 164.049 50.277C164.639 49.0904 165.468 48.169 166.535 47.5128C167.602 46.8565 168.852 46.5284 170.283 46.5284C171.715 46.5284 172.965 46.8565 174.032 47.5128C175.099 48.169 175.928 49.0904 176.518 50.277C177.108 51.4635 177.403 52.849 177.403 54.4332C177.403 56.0109 177.108 57.3897 176.518 58.5696C175.928 59.7495 175.099 60.6676 174.032 61.3239C172.965 61.9801 171.715 62.3082 170.283 62.3082ZM170.293 59.8125C171.221 59.8125 171.99 59.5672 172.6 59.0767C173.21 58.5862 173.661 57.9332 173.952 57.1179C174.251 56.3026 174.4 55.4044 174.4 54.4233C174.4 53.4489 174.251 52.554 173.952 51.7386C173.661 50.9167 173.21 50.2571 172.6 49.7599C171.99 49.2628 171.221 49.0142 170.293 49.0142C169.359 49.0142 168.583 49.2628 167.967 49.7599C167.357 50.2571 166.903 50.9167 166.604 51.7386C166.313 52.554 166.167 53.4489 166.167 54.4233C166.167 55.4044 166.313 56.3026 166.604 57.1179C166.903 57.9332 167.357 58.5862 167.967 59.0767C168.583 59.5672 169.359 59.8125 170.293 59.8125ZM180.721 62V46.7273H183.595V49.1534H183.754C184.032 48.3314 184.523 47.6851 185.225 47.2145C185.935 46.7372 186.737 46.4986 187.632 46.4986C187.817 46.4986 188.036 46.5052 188.288 46.5185C188.547 46.5317 188.749 46.5483 188.895 46.5682V49.4119C188.775 49.3788 188.563 49.3423 188.258 49.3026C187.953 49.2562 187.648 49.233 187.343 49.233C186.641 49.233 186.014 49.3821 185.464 49.6804C184.921 49.9721 184.49 50.3797 184.172 50.9034C183.853 51.4205 183.694 52.0104 183.694 52.6733V62H180.721ZM197.503 62.3082C195.998 62.3082 194.702 61.9867 193.615 61.3438C192.535 60.6941 191.699 59.7827 191.109 58.6094C190.526 57.4295 190.234 56.0473 190.234 54.4631C190.234 52.8987 190.526 51.5199 191.109 50.3267C191.699 49.1335 192.521 48.2022 193.575 47.5327C194.636 46.8632 195.875 46.5284 197.294 46.5284C198.156 46.5284 198.991 46.6709 199.8 46.956C200.608 47.241 201.334 47.6884 201.977 48.2983C202.62 48.9081 203.127 49.7003 203.499 50.6747C203.87 51.6425 204.055 52.8191 204.055 54.2045V55.2585H191.915V53.0312H201.142C201.142 52.2491 200.983 51.5563 200.665 50.9531C200.347 50.3433 199.899 49.8627 199.322 49.5114C198.752 49.16 198.083 48.9844 197.314 48.9844C196.479 48.9844 195.75 49.1899 195.126 49.6009C194.51 50.0052 194.033 50.5355 193.695 51.1918C193.363 51.8414 193.197 52.5473 193.197 53.3097V55.0497C193.197 56.0705 193.376 56.9389 193.734 57.6548C194.099 58.3707 194.606 58.9176 195.256 59.2955C195.905 59.6667 196.664 59.8523 197.533 59.8523C198.096 59.8523 198.61 59.7727 199.074 59.6136C199.538 59.4479 199.939 59.2027 200.277 58.8778C200.615 58.553 200.874 58.152 201.053 57.6747L203.866 58.1818C203.641 59.0104 203.237 59.7363 202.653 60.3594C202.077 60.9759 201.351 61.4564 200.476 61.8011C199.607 62.1392 198.616 62.3082 197.503 62.3082Z" fill="white"/>
<g clip-path="url(#clip0_1_597)">
<path d="M53.0661 42.8011C53.1282 49.2959 58.9357 51.4573 59 51.4848C58.9509 51.6373 58.0721 54.5649 55.9404 57.589C54.0976 60.2035 52.1851 62.8084 49.1722 62.8623C46.2119 62.9153 45.2599 61.1582 41.8753 61.1582C38.4918 61.1582 37.4342 62.8084 34.6318 62.9153C31.7237 63.0221 29.5092 60.0881 27.6511 57.4832C23.8543 52.1548 20.9528 42.4264 24.8488 35.8596C26.7843 32.5984 30.243 30.5334 33.9972 30.4804C36.853 30.4275 39.5484 32.3454 41.2941 32.3454C43.0388 32.3454 46.3143 30.039 49.7578 30.3777C51.1993 30.436 55.2458 30.943 57.8442 34.6349C57.6348 34.7609 53.0159 37.3711 53.0661 42.8011ZM47.5024 26.8525C49.0463 25.0383 50.0855 22.5129 49.802 20C47.5765 20.0868 44.8854 21.4396 43.2891 23.2528C41.8585 24.8584 40.6057 27.4284 40.9437 29.8915C43.4243 30.0778 45.9584 28.6678 47.5024 26.8525Z" fill="white"/>
</g>
<defs>
<clipPath id="clip0_1_597">
<rect width="36" height="43" fill="white" transform="translate(23 20)"/>
</clipPath>
</defs>
</svg>
