<svg width="250" height="81" viewBox="0 0 250 81" fill="none" xmlns="http://www.w3.org/2000/svg">
<rect width="250" height="81" rx="12" fill="black"/>
<path d="M86.0341 22.7273C86.0341 24.2614 85.7571 25.5871 85.2031 26.7045C84.6491 27.822 83.8892 28.6837 82.9233 29.2898C81.9574 29.8958 80.8542 30.1989 79.6136 30.1989C78.3731 30.1989 77.2699 29.8958 76.304 29.2898C75.3381 28.6837 74.5781 27.822 74.0241 26.7045C73.4702 25.5871 73.1932 24.2614 73.1932 22.7273C73.1932 21.1932 73.4702 19.8674 74.0241 18.75C74.5781 17.6326 75.3381 16.7708 76.304 16.1648C77.2699 15.5587 78.3731 15.2557 79.6136 15.2557C80.8542 15.2557 81.9574 15.5587 82.9233 16.1648C83.8892 16.7708 84.6491 17.6326 85.2031 18.75C85.7571 19.8674 86.0341 21.1932 86.0341 22.7273ZM84.3295 22.7273C84.3295 21.4678 84.1188 20.4048 83.6974 19.5384C83.2808 18.6719 82.715 18.0161 82 17.571C81.2898 17.1259 80.4943 16.9034 79.6136 16.9034C78.733 16.9034 77.9351 17.1259 77.2202 17.571C76.5099 18.0161 75.9441 18.6719 75.5227 19.5384C75.1061 20.4048 74.8977 21.4678 74.8977 22.7273C74.8977 23.9867 75.1061 25.0497 75.5227 25.9162C75.9441 26.7827 76.5099 27.4384 77.2202 27.8835C77.9351 28.3286 78.733 28.5511 79.6136 28.5511C80.4943 28.5511 81.2898 28.3286 82 27.8835C82.715 27.4384 83.2808 26.7827 83.6974 25.9162C84.1188 25.0497 84.3295 23.9867 84.3295 22.7273ZM88.1435 20.6534V19.0909H97.0071V20.6534H93.4276V30H91.7514V20.6534H88.1435ZM99.4521 30V19.0909H101.128V23.8352H102.236L106.157 19.0909H108.316L103.912 24.3466L108.373 30H106.213L102.634 25.3977H101.128V30H99.4521ZM110.194 34.0909V19.0909H111.814V20.8239H112.012C112.136 20.6345 112.306 20.393 112.524 20.0994C112.746 19.8011 113.064 19.536 113.475 19.304C113.892 19.0672 114.456 18.9489 115.166 18.9489C116.084 18.9489 116.894 19.1785 117.595 19.6378C118.296 20.0971 118.842 20.7481 119.235 21.5909C119.628 22.4337 119.825 23.428 119.825 24.5739C119.825 25.7292 119.628 26.7306 119.235 27.5781C118.842 28.4209 118.298 29.0743 117.602 29.5384C116.906 29.9976 116.103 30.2273 115.194 30.2273C114.493 30.2273 113.932 30.1113 113.511 29.8793C113.09 29.6425 112.765 29.375 112.538 29.0767C112.311 28.7737 112.136 28.5227 112.012 28.3239H111.87V34.0909H110.194ZM111.842 24.5455C111.842 25.3693 111.963 26.0961 112.204 26.7259C112.446 27.3509 112.798 27.8409 113.262 28.196C113.726 28.5464 114.295 28.7216 114.967 28.7216C115.668 28.7216 116.252 28.5369 116.721 28.1676C117.195 27.7936 117.55 27.2917 117.787 26.6619C118.028 26.0275 118.149 25.322 118.149 24.5455C118.149 23.7784 118.03 23.0871 117.794 22.4716C117.562 21.8513 117.209 21.3613 116.735 21.0014C116.267 20.6368 115.677 20.4545 114.967 20.4545C114.285 20.4545 113.712 20.6274 113.248 20.973C112.784 21.3139 112.434 21.7921 112.197 22.4077C111.96 23.0185 111.842 23.7311 111.842 24.5455ZM126.814 30.2273C125.829 30.2273 124.965 29.9929 124.221 29.5241C123.483 29.0554 122.905 28.3996 122.488 27.5568C122.076 26.714 121.87 25.7292 121.87 24.6023C121.87 23.4659 122.076 22.474 122.488 21.6264C122.905 20.7789 123.483 20.1207 124.221 19.652C124.965 19.1832 125.829 18.9489 126.814 18.9489C127.798 18.9489 128.66 19.1832 129.399 19.652C130.142 20.1207 130.72 20.7789 131.132 21.6264C131.548 22.474 131.757 23.4659 131.757 24.6023C131.757 25.7292 131.548 26.714 131.132 27.5568C130.72 28.3996 130.142 29.0554 129.399 29.5241C128.66 29.9929 127.798 30.2273 126.814 30.2273ZM126.814 28.7216C127.562 28.7216 128.177 28.5298 128.66 28.1463C129.143 27.7628 129.501 27.2585 129.733 26.6335C129.965 26.0085 130.081 25.3314 130.081 24.6023C130.081 23.8731 129.965 23.1937 129.733 22.5639C129.501 21.9342 129.143 21.4252 128.66 21.0369C128.177 20.6487 127.562 20.4545 126.814 20.4545C126.065 20.4545 125.45 20.6487 124.967 21.0369C124.484 21.4252 124.127 21.9342 123.895 22.5639C123.663 23.1937 123.547 23.8731 123.547 24.6023C123.547 25.3314 123.663 26.0085 123.895 26.6335C124.127 27.2585 124.484 27.7628 124.967 28.1463C125.45 28.5298 126.065 28.7216 126.814 28.7216ZM135.991 27.5284L141.247 19.0909H143.179V30H141.503V21.5625L136.276 30H134.315V19.0909H135.991V27.5284ZM140.139 15.4545H141.702C141.702 16.2216 141.437 16.849 140.906 17.3366C140.376 17.8243 139.656 18.0682 138.747 18.0682C137.852 18.0682 137.14 17.8243 136.609 17.3366C136.084 16.849 135.821 16.2216 135.821 15.4545H137.384C137.384 15.8239 137.485 16.1482 137.689 16.4276C137.897 16.7069 138.25 16.8466 138.747 16.8466C139.244 16.8466 139.599 16.7069 139.812 16.4276C140.03 16.1482 140.139 15.8239 140.139 15.4545ZM144.765 20.6534V19.0909H153.628V20.6534H150.049V30H148.373V20.6534H144.765ZM160.081 30.2273C159.029 30.2273 158.123 29.9953 157.36 29.5312C156.603 29.0625 156.018 28.4091 155.606 27.571C155.199 26.7282 154.995 25.7481 154.995 24.6307C154.995 23.5133 155.199 22.5284 155.606 21.6761C156.018 20.8191 156.591 20.1515 157.325 19.6733C158.064 19.1903 158.925 18.9489 159.91 18.9489C160.478 18.9489 161.039 19.0436 161.593 19.233C162.147 19.4223 162.652 19.7301 163.106 20.1562C163.561 20.5777 163.923 21.1364 164.193 21.8324C164.463 22.5284 164.598 23.3854 164.598 24.4034V25.1136H156.189V23.6648H162.893C162.893 23.0492 162.77 22.5 162.524 22.017C162.282 21.5341 161.937 21.1529 161.487 20.8736C161.042 20.5942 160.516 20.4545 159.91 20.4545C159.243 20.4545 158.665 20.6203 158.177 20.9517C157.694 21.2784 157.323 21.7045 157.062 22.2301C156.802 22.7557 156.672 23.3191 156.672 23.9205V24.8864C156.672 25.7102 156.814 26.4086 157.098 26.9815C157.386 27.5497 157.787 27.983 158.298 28.2812C158.809 28.5748 159.404 28.7216 160.081 28.7216C160.521 28.7216 160.919 28.66 161.274 28.5369C161.634 28.4091 161.944 28.2197 162.204 27.9688C162.465 27.7131 162.666 27.3958 162.808 27.017L164.427 27.4716C164.257 28.0208 163.97 28.5038 163.568 28.9205C163.165 29.3324 162.668 29.6544 162.076 29.8864C161.484 30.1136 160.819 30.2273 160.081 30.2273ZM172.772 30V19.0909H177.233C178.407 19.0909 179.34 19.3561 180.031 19.8864C180.722 20.4167 181.068 21.1174 181.068 21.9886C181.068 22.6515 180.871 23.1652 180.478 23.5298C180.085 23.8897 179.581 24.1335 178.966 24.2614C179.368 24.3182 179.759 24.4602 180.137 24.6875C180.521 24.9148 180.838 25.2273 181.089 25.625C181.34 26.018 181.466 26.5009 181.466 27.0739C181.466 27.6326 181.324 28.1321 181.039 28.5724C180.755 29.0128 180.348 29.3608 179.818 29.6165C179.288 29.8722 178.653 30 177.914 30H172.772ZM174.363 28.4659H177.914C178.492 28.4659 178.944 28.3286 179.271 28.054C179.598 27.7794 179.761 27.4053 179.761 26.9318C179.761 26.3684 179.598 25.9257 179.271 25.6037C178.944 25.277 178.492 25.1136 177.914 25.1136H174.363V28.4659ZM174.363 23.6648H177.233C177.682 23.6648 178.068 23.6032 178.39 23.4801C178.712 23.3523 178.958 23.1723 179.129 22.9403C179.304 22.7036 179.392 22.4242 179.392 22.1023C179.392 21.643 179.2 21.2831 178.816 21.0227C178.433 20.7576 177.905 20.625 177.233 20.625H174.363V23.6648Z" fill="white"/>
<path d="M75.9574 62H72.696L80.0241 41.6364H83.5739L90.902 62H87.6406L81.8835 45.3352H81.7244L75.9574 62ZM76.5043 54.0256H87.0838V56.6108H76.5043V54.0256ZM93.604 67.7273V46.7273H96.5075V49.2031H96.756C96.9284 48.8849 97.177 48.517 97.5018 48.0994C97.8266 47.6818 98.2773 47.3172 98.854 47.0057C99.4308 46.6875 100.193 46.5284 101.141 46.5284C102.374 46.5284 103.474 46.84 104.442 47.4631C105.41 48.0862 106.169 48.9844 106.719 50.1577C107.276 51.331 107.554 52.7429 107.554 54.3935C107.554 56.044 107.279 57.4593 106.729 58.6392C106.179 59.8125 105.423 60.7173 104.462 61.3537C103.501 61.9834 102.404 62.2983 101.171 62.2983C100.243 62.2983 99.4838 62.1425 98.8938 61.831C98.3105 61.5194 97.8531 61.1548 97.5217 60.7372C97.1902 60.3196 96.935 59.9484 96.756 59.6236H96.5771V67.7273H93.604ZM96.5174 54.3636C96.5174 55.4375 96.6732 56.3788 96.9847 57.1875C97.2963 57.9962 97.747 58.6293 98.337 59.0866C98.927 59.5374 99.6495 59.7628 100.505 59.7628C101.393 59.7628 102.135 59.5275 102.732 59.0568C103.328 58.5795 103.779 57.9332 104.084 57.1179C104.396 56.3026 104.551 55.3845 104.551 54.3636C104.551 53.3561 104.399 52.4512 104.094 51.6491C103.796 50.8471 103.345 50.214 102.742 49.75C102.145 49.286 101.4 49.054 100.505 49.054C99.6429 49.054 98.9137 49.276 98.3171 49.7202C97.7272 50.1643 97.2797 50.7841 96.9748 51.5795C96.6699 52.375 96.5174 53.303 96.5174 54.3636ZM110.885 67.7273V46.7273H113.789V49.2031H114.037C114.21 48.8849 114.458 48.517 114.783 48.0994C115.108 47.6818 115.559 47.3172 116.135 47.0057C116.712 46.6875 117.474 46.5284 118.422 46.5284C119.655 46.5284 120.756 46.84 121.723 47.4631C122.691 48.0862 123.45 48.9844 124 50.1577C124.557 51.331 124.836 52.7429 124.836 54.3935C124.836 56.044 124.56 57.4593 124.01 58.6392C123.46 59.8125 122.704 60.7173 121.743 61.3537C120.782 61.9834 119.685 62.2983 118.452 62.2983C117.524 62.2983 116.765 62.1425 116.175 61.831C115.592 61.5194 115.134 61.1548 114.803 60.7372C114.471 60.3196 114.216 59.9484 114.037 59.6236H113.858V67.7273H110.885ZM113.799 54.3636C113.799 55.4375 113.954 56.3788 114.266 57.1875C114.578 57.9962 115.028 58.6293 115.618 59.0866C116.208 59.5374 116.931 59.7628 117.786 59.7628C118.674 59.7628 119.417 59.5275 120.013 59.0568C120.61 58.5795 121.06 57.9332 121.365 57.1179C121.677 56.3026 121.833 55.3845 121.833 54.3636C121.833 53.3561 121.68 52.4512 121.375 51.6491C121.077 50.8471 120.626 50.214 120.023 49.75C119.426 49.286 118.681 49.054 117.786 49.054C116.924 49.054 116.195 49.276 115.598 49.7202C115.008 50.1643 114.561 50.7841 114.256 51.5795C113.951 52.375 113.799 53.303 113.799 54.3636ZM142.186 48.0696C141.994 47.4664 141.736 46.9261 141.411 46.4489C141.093 45.965 140.712 45.554 140.267 45.2159C139.823 44.8712 139.316 44.6094 138.746 44.4304C138.183 44.2514 137.563 44.1619 136.887 44.1619C135.74 44.1619 134.706 44.4569 133.784 45.0469C132.863 45.6368 132.134 46.5019 131.597 47.642C131.067 48.7756 130.801 50.1643 130.801 51.8082C130.801 53.4588 131.07 54.8542 131.607 55.9943C132.144 57.1345 132.88 57.9995 133.814 58.5895C134.749 59.1795 135.813 59.4744 137.006 59.4744C138.113 59.4744 139.078 59.2491 139.9 58.7983C140.728 58.3475 141.368 57.7112 141.819 56.8892C142.276 56.0606 142.505 55.0862 142.505 53.9659L143.3 54.1151H137.473V51.5795H145.478V53.8963C145.478 55.6065 145.113 57.0914 144.384 58.3509C143.661 59.6037 142.66 60.5715 141.381 61.2543C140.108 61.937 138.65 62.2784 137.006 62.2784C135.163 62.2784 133.546 61.8542 132.154 61.0057C130.768 60.1572 129.688 58.9541 128.912 57.3963C128.137 55.8319 127.749 53.9759 127.749 51.8281C127.749 50.2041 127.974 48.7457 128.425 47.4531C128.876 46.1605 129.509 45.0634 130.324 44.1619C131.146 43.2538 132.111 42.5611 133.218 42.0838C134.331 41.5999 135.548 41.358 136.867 41.358C137.967 41.358 138.991 41.5204 139.939 41.8452C140.894 42.17 141.742 42.6307 142.485 43.2273C143.234 43.8239 143.854 44.5331 144.344 45.3551C144.835 46.1705 145.166 47.0753 145.338 48.0696H142.186ZM153.584 62.3381C152.616 62.3381 151.741 62.1591 150.959 61.8011C150.177 61.4366 149.557 60.9096 149.099 60.2202C148.649 59.5308 148.423 58.6856 148.423 57.6847C148.423 56.8229 148.589 56.1136 148.92 55.5568C149.252 55 149.699 54.5592 150.263 54.2344C150.826 53.9096 151.456 53.6643 152.152 53.4986C152.848 53.3329 153.557 53.2069 154.28 53.1207C155.195 53.0147 155.937 52.9285 156.507 52.8622C157.077 52.7893 157.491 52.6733 157.75 52.5142C158.009 52.3551 158.138 52.0966 158.138 51.7386V51.669C158.138 50.8007 157.893 50.1278 157.402 49.6506C156.918 49.1733 156.196 48.9347 155.234 48.9347C154.233 48.9347 153.445 49.1567 152.868 49.6009C152.298 50.0384 151.903 50.5256 151.685 51.0625L148.891 50.4261C149.222 49.4981 149.706 48.7491 150.342 48.179C150.985 47.6023 151.724 47.1847 152.56 46.9261C153.395 46.661 154.273 46.5284 155.195 46.5284C155.804 46.5284 156.451 46.6013 157.134 46.7472C157.823 46.8864 158.466 47.1449 159.062 47.5227C159.666 47.9006 160.16 48.4408 160.544 49.1435C160.929 49.8395 161.121 50.7443 161.121 51.858V62H158.217V59.9119H158.098C157.906 60.2964 157.617 60.6742 157.233 61.0455C156.848 61.4167 156.355 61.7249 155.751 61.9702C155.148 62.2154 154.426 62.3381 153.584 62.3381ZM154.23 59.9517C155.052 59.9517 155.755 59.7893 156.338 59.4645C156.928 59.1397 157.375 58.7154 157.68 58.1918C157.992 57.6615 158.148 57.0947 158.148 56.4915V54.5227C158.042 54.6288 157.836 54.7282 157.531 54.821C157.233 54.9072 156.892 54.9834 156.507 55.0497C156.123 55.1094 155.748 55.1657 155.384 55.2188C155.019 55.2652 154.714 55.3049 154.469 55.3381C153.892 55.411 153.365 55.5336 152.888 55.706C152.417 55.8783 152.039 56.1269 151.754 56.4517C151.476 56.7699 151.337 57.1941 151.337 57.7244C151.337 58.4602 151.608 59.017 152.152 59.3949C152.696 59.7661 153.388 59.9517 154.23 59.9517ZM168.054 41.6364V62H165.081V41.6364H168.054ZM175.026 41.6364V62H172.053V41.6364H175.026ZM185.608 62.3082C184.104 62.3082 182.808 61.9867 181.721 61.3438C180.64 60.6941 179.805 59.7827 179.215 58.6094C178.632 57.4295 178.34 56.0473 178.34 54.4631C178.34 52.8987 178.632 51.5199 179.215 50.3267C179.805 49.1335 180.627 48.2022 181.681 47.5327C182.741 46.8632 183.981 46.5284 185.4 46.5284C186.261 46.5284 187.096 46.6709 187.905 46.956C188.714 47.241 189.44 47.6884 190.083 48.2983C190.726 48.9081 191.233 49.7003 191.604 50.6747C191.975 51.6425 192.161 52.8191 192.161 54.2045V55.2585H180.02V53.0312H189.248C189.248 52.2491 189.088 51.5563 188.77 50.9531C188.452 50.3433 188.005 49.8627 187.428 49.5114C186.858 49.16 186.188 48.9844 185.419 48.9844C184.584 48.9844 183.855 49.1899 183.232 49.6009C182.615 50.0052 182.138 50.5355 181.8 51.1918C181.469 51.8414 181.303 52.5473 181.303 53.3097V55.0497C181.303 56.0705 181.482 56.9389 181.84 57.6548C182.204 58.3707 182.712 58.9176 183.361 59.2955C184.011 59.6667 184.77 59.8523 185.638 59.8523C186.202 59.8523 186.715 59.7727 187.179 59.6136C187.643 59.4479 188.044 59.2027 188.382 58.8778C188.721 58.553 188.979 58.152 189.158 57.6747L191.972 58.1818C191.747 59.0104 191.342 59.7363 190.759 60.3594C190.182 60.9759 189.456 61.4564 188.581 61.8011C187.713 62.1392 186.722 62.3082 185.608 62.3082ZM195.46 62V46.7273H198.333V49.1534H198.492C198.771 48.3314 199.261 47.6851 199.964 47.2145C200.673 46.7372 201.475 46.4986 202.37 46.4986C202.556 46.4986 202.774 46.5052 203.026 46.5185C203.285 46.5317 203.487 46.5483 203.633 46.5682V49.4119C203.513 49.3788 203.301 49.3423 202.996 49.3026C202.692 49.2562 202.387 49.233 202.082 49.233C201.379 49.233 200.753 49.3821 200.202 49.6804C199.659 49.9721 199.228 50.3797 198.91 50.9034C198.592 51.4205 198.433 52.0104 198.433 52.6733V62H195.46ZM208.55 67.7273C208.106 67.7273 207.701 67.6908 207.337 67.6179C206.972 67.5516 206.7 67.4787 206.521 67.3991L207.237 64.9631C207.781 65.1089 208.265 65.1719 208.689 65.152C209.113 65.1321 209.488 64.973 209.812 64.6747C210.144 64.3764 210.436 63.8892 210.688 63.2131L211.055 62.1989L205.467 46.7273H208.649L212.517 58.5795H212.676L216.544 46.7273H219.736L213.442 64.0384C213.15 64.8338 212.779 65.5066 212.328 66.0568C211.877 66.6136 211.34 67.0313 210.717 67.3097C210.094 67.5881 209.372 67.7273 208.55 67.7273Z" fill="white"/>
<path d="M53.4617 23H33.5383C29.375 23 26 26.375 26 30.5383V50.4617C26 54.625 29.375 58 33.5383 58H53.4617C57.625 58 61 54.625 61 50.4617V30.5383C61 26.375 57.625 23 53.4617 23Z" fill="#E14459"/>
<path d="M34.5317 25.2883C34.2678 25.2886 34.0148 25.3934 33.8283 25.5795C33.6419 25.7656 33.5372 26.0179 33.5374 26.2808C33.5376 26.5439 33.6427 26.7961 33.8294 26.9819C34.0162 27.1678 34.2695 27.2722 34.5334 27.2721C34.7974 27.2719 35.0506 27.1674 35.2372 26.9813C35.4238 26.7953 35.5286 26.543 35.5286 26.28V26.2782C35.5282 26.0151 35.4229 25.763 35.2359 25.5773C35.049 25.3916 34.7957 25.2879 34.5317 25.2883ZM52.3419 25.2883C52.078 25.2886 51.825 25.3934 51.6386 25.5795C51.4521 25.7656 51.3475 26.0179 51.3476 26.2808C51.3478 26.544 51.4529 26.7962 51.6398 26.9821C51.8267 27.168 52.08 27.2723 52.3441 27.2721C52.6081 27.2719 52.8612 27.1674 53.0479 26.9813C53.2345 26.7953 53.3393 26.543 53.3393 26.28V26.2782C53.3388 26.0151 53.2335 25.7629 53.0464 25.5772C52.8594 25.3915 52.606 25.2878 52.3419 25.2883Z" fill="#C73148"/>
<path d="M34.4924 26.1434C34.1463 26.1619 34.1636 26.6648 34.1636 26.6648C36.0236 30.2868 39.4476 32.0629 43.3966 32.0633C47.3403 32.0576 50.7983 30.2616 52.6557 26.645C52.6557 26.645 52.7291 25.964 52.0043 26.1999C50.0996 29.357 46.9001 31.2246 43.3988 31.2303C39.8913 31.2312 36.7029 29.3831 34.7946 26.2203C34.6709 26.1606 34.5724 26.139 34.4924 26.1434ZM47.0782 40.2203L46.0203 43.3712L44.9906 40.2225H43.9852L45.608 44.8034H46.3906L47.4512 41.7944L48.5101 44.8034H49.2993L50.919 40.2229H49.9388L48.9069 43.3716L47.8489 40.2207L47.0782 40.2203ZM41.4588 40.2216L39.4061 44.8003H40.3708L40.7672 43.9138L40.7955 43.8471H42.9282L43.3462 44.8003H44.3374L42.3033 40.2486L42.2856 40.2216H41.4588ZM56.3258 40.2216V44.7977H57.2587V40.222L56.3258 40.2216ZM29.5769 40.2225V44.8047H30.5226V42.9438H32.6571V44.8043H33.6032V40.2229H32.6575V42.0715H30.5231V40.2229L29.5769 40.2225ZM37.9796 40.2238V42.8466C37.9796 43.5912 37.6039 43.989 36.9203 43.989C36.2335 43.989 35.8553 43.5802 35.8553 42.8148V40.2265H34.9091V42.8466C34.9091 44.1357 35.6383 44.8746 36.9079 44.8746C38.1895 44.8746 38.9244 44.1215 38.9244 42.8086V40.2234L37.9796 40.2238ZM51.6817 40.2256V44.8012H55.2007V43.9669H52.6142V42.8325H54.3337V41.9972H52.6142V41.0604H55.111V40.226L51.6817 40.2256ZM41.8592 41.3808L42.5335 42.9151L42.5795 43.0207H41.149L41.1941 42.9151L41.8592 41.3808Z" fill="white"/>
</svg>
