<svg width="129" height="132" viewBox="0 0 129 132" fill="none" xmlns="http://www.w3.org/2000/svg">
<path d="M84.9999 9C16.6666 35.6667 -74.2001 94 109 114" stroke="black" stroke-width="2" stroke-dasharray="4 4"/>
<g filter="url(#filter0_d_2001_166)">
<circle cx="83.9998" cy="10" r="10" fill="#9657EB"/>
<circle cx="83.9998" cy="10" r="8.5" stroke="white" stroke-width="3"/>
</g>
<g filter="url(#filter1_d_2001_166)">
<path d="M121.5 108.17C124.833 110.094 124.833 114.906 121.5 116.83L110.25 123.325C106.916 125.25 102.75 122.844 102.75 118.995L102.75 106.005C102.75 102.156 106.916 99.7502 110.25 101.675L121.5 108.17Z" fill="#9657EB"/>
<path d="M120.75 109.469C123.083 110.816 123.083 114.184 120.75 115.531L109.5 122.026C107.166 123.373 104.25 121.689 104.25 118.995L104.25 106.005C104.25 103.311 107.166 101.627 109.5 102.974L120.75 109.469Z" stroke="white" stroke-width="3"/>
</g>
<defs>
<filter id="filter0_d_2001_166" x="69.9998" y="0" width="28" height="28" filterUnits="userSpaceOnUse" color-interpolation-filters="sRGB">
<feFlood flood-opacity="0" result="BackgroundImageFix"/>
<feColorMatrix in="SourceAlpha" type="matrix" values="0 0 0 0 0 0 0 0 0 0 0 0 0 0 0 0 0 0 127 0" result="hardAlpha"/>
<feOffset dy="4"/>
<feGaussianBlur stdDeviation="2"/>
<feComposite in2="hardAlpha" operator="out"/>
<feColorMatrix type="matrix" values="0 0 0 0 0 0 0 0 0 0 0 0 0 0 0 0 0 0 0.25 0"/>
<feBlend mode="normal" in2="BackgroundImageFix" result="effect1_dropShadow_2001_166"/>
<feBlend mode="normal" in="SourceGraphic" in2="effect1_dropShadow_2001_166" result="shape"/>
</filter>
<filter id="filter1_d_2001_166" x="98.7498" y="100.997" width="29.25" height="31.0054" filterUnits="userSpaceOnUse" color-interpolation-filters="sRGB">
<feFlood flood-opacity="0" result="BackgroundImageFix"/>
<feColorMatrix in="SourceAlpha" type="matrix" values="0 0 0 0 0 0 0 0 0 0 0 0 0 0 0 0 0 0 127 0" result="hardAlpha"/>
<feOffset dy="4"/>
<feGaussianBlur stdDeviation="2"/>
<feComposite in2="hardAlpha" operator="out"/>
<feColorMatrix type="matrix" values="0 0 0 0 0 0 0 0 0 0 0 0 0 0 0 0 0 0 0.25 0"/>
<feBlend mode="normal" in2="BackgroundImageFix" result="effect1_dropShadow_2001_166"/>
<feBlend mode="normal" in="SourceGraphic" in2="effect1_dropShadow_2001_166" result="shape"/>
</filter>
</defs>
</svg>
