<svg width="22" height="22" viewBox="0 0 22 22" fill="none" xmlns="http://www.w3.org/2000/svg">
<path fill-rule="evenodd" clip-rule="evenodd" d="M10.7788 0C8.12092 0 5.9663 2.15463 5.9663 4.8125V6.875H3.71292C2.69199 6.875 1.82469 7.6219 1.67324 8.63156L0.0232418 19.6316C-0.163807 20.8785 0.801978 22 2.06292 22H19.4946C20.7556 22 21.7214 20.8785 21.5343 19.6316L19.8843 8.63156C19.7329 7.6219 18.8656 6.875 17.8446 6.875H15.5913V4.8125C15.5913 2.15463 13.4367 0 10.7788 0ZM14.2163 8.25V9.625C14.2163 10.0047 14.5241 10.3125 14.9038 10.3125C15.2835 10.3125 15.5913 10.0047 15.5913 9.625V8.25H17.8446C18.185 8.25 18.4741 8.49894 18.5245 8.83554L20.1745 19.8355C20.2369 20.2512 19.915 20.625 19.4946 20.625H2.06292C1.6426 20.625 1.32068 20.2512 1.38303 19.8355L3.03303 8.83554C3.08351 8.49894 3.37262 8.25 3.71292 8.25H5.9663V9.625C5.9663 10.0047 6.2741 10.3125 6.6538 10.3125C7.03351 10.3125 7.3413 10.0047 7.3413 9.625V8.25H14.2163ZM14.2163 6.875V4.8125C14.2163 2.91402 12.6773 1.375 10.7788 1.375C8.88034 1.375 7.3413 2.91402 7.3413 4.8125V6.875H14.2163Z" fill="white"/>
</svg>
