<svg width="40" height="40" viewBox="0 0 40 40" fill="none" xmlns="http://www.w3.org/2000/svg">
<path d="M14.0092 34.5677L37.4782 21.0178C39.2718 19.9823 39.8864 17.6888 38.8508 15.8952L31.1138 2.49429C30.0783 0.700698 27.7848 0.0861675 25.9912 1.1217L2.52219 14.6715C0.728587 15.7071 0.114055 18.0005 1.14959 19.7941L8.88662 33.1951C9.92215 34.9887 12.2156 35.6032 14.0092 34.5677Z" fill="#689F38"/>
<path d="M1.76562 20.8603L31.7287 3.5603L34.635 8.59437L4.67187 25.8937L1.76562 20.8603Z" fill="#ECEFF1"/>
<path d="M32.6562 16.0938H4.21875C2.14768 16.0938 0.46875 17.7727 0.46875 19.8438V35.7812C0.46875 37.8523 2.14768 39.5312 4.21875 39.5312H32.6562C34.7273 39.5312 36.4062 37.8523 36.4062 35.7812V19.8438C36.4062 17.7727 34.7273 16.0938 32.6562 16.0938Z" fill="#7CB342"/>
<path d="M8.28125 19.8438H6.09375C5.05822 19.8438 4.21875 20.6832 4.21875 21.7188V23.9062C4.21875 24.9418 5.05822 25.7812 6.09375 25.7812H8.28125C9.31678 25.7812 10.1562 24.9418 10.1562 23.9062V21.7188C10.1562 20.6832 9.31678 19.8438 8.28125 19.8438Z" fill="#FFB300"/>
<path d="M9.375 34.5312H5.3125C5.02242 34.5312 4.74422 34.416 4.5391 34.2109C4.33398 34.0058 4.21875 33.7276 4.21875 33.4375C4.21875 33.1474 4.33398 32.8692 4.5391 32.6641C4.74422 32.459 5.02242 32.3438 5.3125 32.3438H9.375C9.66508 32.3438 9.94328 32.459 10.1484 32.6641C10.3535 32.8692 10.4688 33.1474 10.4688 33.4375C10.4688 33.7276 10.3535 34.0058 10.1484 34.2109C9.94328 34.416 9.66508 34.5312 9.375 34.5312ZM31.5625 34.5312H27.5C27.2099 34.5312 26.9317 34.416 26.7266 34.2109C26.5215 34.0058 26.4062 33.7276 26.4062 33.4375C26.4062 33.1474 26.5215 32.8692 26.7266 32.6641C26.9317 32.459 27.2099 32.3438 27.5 32.3438H31.5625C31.8526 32.3438 32.1308 32.459 32.3359 32.6641C32.541 32.8692 32.6562 33.1474 32.6562 33.4375C32.6562 33.7276 32.541 34.0058 32.3359 34.2109C32.1308 34.416 31.8526 34.5312 31.5625 34.5312ZM20.625 34.5312H16.25C15.9599 34.5312 15.6817 34.416 15.4766 34.2109C15.2715 34.0058 15.1562 33.7276 15.1562 33.4375C15.1562 33.1474 15.2715 32.8692 15.4766 32.6641C15.6817 32.459 15.9599 32.3438 16.25 32.3438H20.625C20.9151 32.3438 21.1933 32.459 21.3984 32.6641C21.6035 32.8692 21.7188 33.1474 21.7188 33.4375C21.7188 33.7276 21.6035 34.0058 21.3984 34.2109C21.1933 34.416 20.9151 34.5312 20.625 34.5312Z" fill="white"/>
</svg>
