<svg width="353" height="398" viewBox="0 0 353 398" fill="none" xmlns="http://www.w3.org/2000/svg">
<g filter="url(#filter0_d_2053_173)">
<g opacity="0.6" filter="url(#filter1_f_2053_173)">
<path d="M273 218.084L196.624 80L80 145.395L163.407 318L273 218.084Z" fill="url(#paint0_linear_2053_173)"/>
</g>
<g clip-path="url(#clip0_2053_173)">
<path d="M109.838 31.5978C103.172 27.3288 94.4209 32.1161 94.4209 40.0324C94.4209 42.7249 96.8462 46.5212 96.8462 50.0492C96.8462 53.7701 94.4209 57.2252 94.4209 60.0649C94.4209 67.9813 103.172 72.7685 109.838 68.5003L138.652 50.0494L109.838 31.5978Z" fill="url(#paint1_radial_2053_173)"/>
<path d="M131.541 54.6038L112.804 66.6016L109.838 68.4985C108.628 69.2761 107.35 69.7498 106.067 69.9625C103.678 67.2882 102.229 63.7609 102.229 59.8948C102.229 51.5372 109.004 44.7627 117.36 44.7627C120.823 44.7571 124.182 45.945 126.871 48.1263C128.98 49.8281 130.593 52.0653 131.541 54.6038Z" fill="url(#paint2_linear_2053_173)"/>
<path d="M136.695 51.3044L131.541 54.6038L112.804 66.6016C112.345 64.6693 112.277 62.665 112.602 60.7059C113.784 53.5271 119.872 48.3821 126.87 48.1264C127.86 48.089 128.867 48.1495 129.882 48.3186C132.46 48.7406 134.775 49.7961 136.695 51.3044Z" fill="url(#paint3_linear_2053_173)"/>
<path d="M109.838 68.5001L118.084 63.2197C118.215 62.5064 118.281 61.7828 118.282 61.0577C118.282 54.442 112.919 49.0789 106.304 49.0789C101.366 49.0789 97.1279 52.0667 95.2935 56.332C94.8198 57.6614 94.4209 58.914 94.4209 60.0647C94.4209 67.9811 103.172 72.7683 109.838 68.5001Z" fill="url(#paint4_linear_2053_173)"/>
<path d="M157.184 31.5978C163.851 27.3288 172.602 32.1161 172.602 40.0324C172.602 42.7249 170.177 46.5212 170.177 50.0492C170.177 53.7701 172.602 57.2252 172.602 60.0649C172.602 67.9813 163.851 72.7685 157.184 68.5003L128.37 50.0494L157.184 31.5978Z" fill="url(#paint5_radial_2053_173)"/>
<path d="M135.482 54.6038L154.219 66.6016L157.184 68.4985C158.395 69.2761 159.672 69.7498 160.956 69.9625C163.344 67.2882 164.794 63.7609 164.794 59.8948C164.794 51.5372 158.02 44.7627 149.662 44.7627C146.2 44.7572 142.841 45.9451 140.152 48.1263C138.066 49.8106 136.436 52.0429 135.482 54.6038Z" fill="url(#paint6_linear_2053_173)"/>
<path d="M130.327 51.3042L135.481 54.6036L154.218 66.6014C154.677 64.6691 154.745 62.6648 154.419 60.7057C153.238 53.5269 147.15 48.3819 140.152 48.1262C139.144 48.0879 138.135 48.1523 137.14 48.3184C134.562 48.7404 132.248 49.7959 130.327 51.3042Z" fill="url(#paint7_linear_2053_173)"/>
<path d="M157.184 68.5001L148.938 63.2197C148.807 62.5064 148.741 61.7829 148.74 61.0577C148.74 54.442 154.103 49.0789 160.719 49.0789C165.656 49.0789 169.895 52.0667 171.729 56.332C172.202 57.6614 172.602 58.914 172.602 60.0647C172.602 67.9811 163.851 72.7683 157.184 68.5001Z" fill="url(#paint8_linear_2053_173)"/>
<path d="M157.184 68.5001C160.749 70.7823 164.908 70.4737 168.008 68.4848L142.363 42.8401C142.02 42.4675 141.654 42.1168 141.267 41.7903L128.37 50.0492L157.184 68.5001Z" fill="url(#paint9_linear_2053_173)"/>
<path d="M145.515 50.9459C145.515 57.5751 140.14 62.9498 133.511 62.9498C126.882 62.9498 121.507 57.5751 121.507 50.9459C121.507 44.3166 126.882 38.9421 133.511 38.9421C140.14 38.9421 145.515 44.3168 145.515 50.9459Z" fill="url(#paint10_radial_2053_173)"/>
<path d="M181.394 155.999H85.629C82.5998 155.999 80.1436 153.543 80.1436 150.514V81.2163H186.879V150.514C186.879 153.543 184.423 155.999 181.394 155.999L181.394 155.999Z" fill="url(#paint11_linear_2053_173)"/>
<path d="M187.195 58.4314H79.8285C77.7145 58.4314 76.0005 60.1454 76.0005 62.2594V80.3049C76.0005 82.4189 77.7145 84.1329 79.8285 84.1329H187.194C189.308 84.1329 191.022 82.4189 191.022 80.3049V62.2594C191.022 60.1454 189.308 58.4314 187.195 58.4314Z" fill="url(#paint12_linear_2053_173)"/>
<path d="M80.1436 81.2163V150.514C80.1436 153.543 82.5986 155.999 85.6287 155.999H157.333V81.2163H80.1436Z" fill="url(#paint13_linear_2053_173)"/>
<path d="M79.8281 84.133L108.58 112.886V83.5198H79.8281V84.133Z" fill="url(#paint14_linear_2053_173)"/>
<path d="M79.8285 84.1329H157.333V58.4312H79.8285C77.7145 58.4314 76.0005 60.1454 76.0005 62.2594V80.305C76.0005 82.4189 77.7145 84.1329 79.8285 84.1329Z" fill="url(#paint15_linear_2053_173)"/>
<path d="M80.1436 137.871V150.514C80.1436 153.543 82.5986 155.999 85.6287 155.999H181.394C184.423 155.999 186.879 153.543 186.879 150.514V137.871H80.1436Z" fill="url(#paint16_linear_2053_173)"/>
<path d="M107.286 58.4314H130.191V155.999H107.286L107.286 58.4314Z" fill="url(#paint17_linear_2053_173)"/>
<path d="M107.286 84.1318H130.191V156H107.286L107.286 84.1318Z" fill="url(#paint18_linear_2053_173)"/>
<path d="M186.879 115.121V150.513C186.879 153.544 184.424 156 181.395 156H130.191V58.4336L186.879 115.121Z" fill="url(#paint19_linear_2053_173)"/>
</g>
</g>
<defs>
<filter id="filter0_d_2053_173" x="72" y="30" width="205" height="296" filterUnits="userSpaceOnUse" color-interpolation-filters="sRGB">
<feFlood flood-opacity="0" result="BackgroundImageFix"/>
<feColorMatrix in="SourceAlpha" type="matrix" values="0 0 0 0 0 0 0 0 0 0 0 0 0 0 0 0 0 0 127 0" result="hardAlpha"/>
<feOffset dy="4"/>
<feGaussianBlur stdDeviation="2"/>
<feComposite in2="hardAlpha" operator="out"/>
<feColorMatrix type="matrix" values="0 0 0 0 0 0 0 0 0 0 0 0 0 0 0 0 0 0 0.25 0"/>
<feBlend mode="normal" in2="BackgroundImageFix" result="effect1_dropShadow_2053_173"/>
<feBlend mode="normal" in="SourceGraphic" in2="effect1_dropShadow_2053_173" result="shape"/>
</filter>
<filter id="filter1_f_2053_173" x="0" y="0" width="353" height="398" filterUnits="userSpaceOnUse" color-interpolation-filters="sRGB">
<feFlood flood-opacity="0" result="BackgroundImageFix"/>
<feBlend mode="normal" in="SourceGraphic" in2="BackgroundImageFix" result="shape"/>
<feGaussianBlur stdDeviation="40" result="effect1_foregroundBlur_2053_173"/>
</filter>
<linearGradient id="paint0_linear_2053_173" x1="167.771" y1="111.117" x2="209.663" y2="210.468" gradientUnits="userSpaceOnUse">
<stop/>
<stop offset="1" stop-opacity="0"/>
</linearGradient>
<radialGradient id="paint1_radial_2053_173" cx="0" cy="0" r="1" gradientUnits="userSpaceOnUse" gradientTransform="translate(109.969 37.0475) scale(31.5241 31.5241)">
<stop stop-color="#FF706A"/>
<stop offset="0.323" stop-color="#FE6D67"/>
<stop offset="0.568" stop-color="#FC635E"/>
<stop offset="0.786" stop-color="#F9534E"/>
<stop offset="0.99" stop-color="#F43C37"/>
<stop offset="1" stop-color="#F43B36"/>
</radialGradient>
<linearGradient id="paint2_linear_2053_173" x1="120.048" y1="50.3146" x2="129.63" y2="36.4706" gradientUnits="userSpaceOnUse">
<stop stop-color="#F43B36" stop-opacity="0"/>
<stop offset="0.436" stop-color="#D02021" stop-opacity="0.435"/>
<stop offset="1" stop-color="#A60108"/>
</linearGradient>
<linearGradient id="paint3_linear_2053_173" x1="121.606" y1="53.1964" x2="118.015" y2="46.622" gradientUnits="userSpaceOnUse">
<stop stop-color="#F43B36" stop-opacity="0"/>
<stop offset="0.436" stop-color="#D02021" stop-opacity="0.435"/>
<stop offset="1" stop-color="#A60108"/>
</linearGradient>
<linearGradient id="paint4_linear_2053_173" x1="100.99" y1="55.6262" x2="92.745" y2="48.7392" gradientUnits="userSpaceOnUse">
<stop stop-color="#F43B36" stop-opacity="0"/>
<stop offset="0.436" stop-color="#D02021" stop-opacity="0.435"/>
<stop offset="1" stop-color="#A60108"/>
</linearGradient>
<radialGradient id="paint5_radial_2053_173" cx="0" cy="0" r="1" gradientUnits="userSpaceOnUse" gradientTransform="translate(157.054 37.0475) rotate(180) scale(31.5242 31.5242)">
<stop stop-color="#FF706A"/>
<stop offset="0.323" stop-color="#FE6D67"/>
<stop offset="0.568" stop-color="#FC635E"/>
<stop offset="0.786" stop-color="#F9534E"/>
<stop offset="0.99" stop-color="#F43C37"/>
<stop offset="1" stop-color="#F43B36"/>
</radialGradient>
<linearGradient id="paint6_linear_2053_173" x1="146.974" y1="50.3144" x2="137.392" y2="36.4703" gradientUnits="userSpaceOnUse">
<stop stop-color="#F43B36" stop-opacity="0"/>
<stop offset="0.436" stop-color="#D02021" stop-opacity="0.435"/>
<stop offset="1" stop-color="#A60108"/>
</linearGradient>
<linearGradient id="paint7_linear_2053_173" x1="145.417" y1="53.1962" x2="149.007" y2="46.6217" gradientUnits="userSpaceOnUse">
<stop stop-color="#F43B36" stop-opacity="0"/>
<stop offset="0.436" stop-color="#D02021" stop-opacity="0.435"/>
<stop offset="1" stop-color="#A60108"/>
</linearGradient>
<linearGradient id="paint8_linear_2053_173" x1="166.032" y1="55.6261" x2="174.277" y2="48.7391" gradientUnits="userSpaceOnUse">
<stop stop-color="#F43B36" stop-opacity="0"/>
<stop offset="0.436" stop-color="#D02021" stop-opacity="0.435"/>
<stop offset="1" stop-color="#A60108"/>
</linearGradient>
<linearGradient id="paint9_linear_2053_173" x1="154.33" y1="57.6919" x2="127.849" y2="44.6698" gradientUnits="userSpaceOnUse">
<stop stop-color="#F43B36" stop-opacity="0"/>
<stop offset="0.436" stop-color="#D02021" stop-opacity="0.435"/>
<stop offset="1" stop-color="#A60108"/>
</linearGradient>
<radialGradient id="paint10_radial_2053_173" cx="0" cy="0" r="1" gradientUnits="userSpaceOnUse" gradientTransform="translate(129.946 43.1619) scale(18.1374 18.1374)">
<stop stop-color="#FF706A"/>
<stop offset="0.323" stop-color="#FE6D67"/>
<stop offset="0.568" stop-color="#FC635E"/>
<stop offset="0.786" stop-color="#F9534E"/>
<stop offset="0.99" stop-color="#F43C37"/>
<stop offset="1" stop-color="#F43B36"/>
</radialGradient>
<linearGradient id="paint11_linear_2053_173" x1="188.693" y1="172.182" x2="145.258" y2="128.747" gradientUnits="userSpaceOnUse">
<stop stop-color="#FFD459"/>
<stop offset="0.192" stop-color="#FFD254"/>
<stop offset="0.417" stop-color="#FFCD46"/>
<stop offset="0.658" stop-color="#FFC52E"/>
<stop offset="0.91" stop-color="#FFB90E"/>
<stop offset="1" stop-color="#FFB400"/>
</linearGradient>
<linearGradient id="paint12_linear_2053_173" x1="203.894" y1="71.2824" x2="136.113" y2="71.2824" gradientUnits="userSpaceOnUse">
<stop stop-color="#FFD459"/>
<stop offset="0.075" stop-color="#FFD150"/>
<stop offset="0.488" stop-color="#FFC125"/>
<stop offset="0.811" stop-color="#FFB80A"/>
<stop offset="1" stop-color="#FFB400"/>
</linearGradient>
<linearGradient id="paint13_linear_2053_173" x1="90.3323" y1="88.5947" x2="176.1" y2="174.362" gradientUnits="userSpaceOnUse">
<stop stop-color="#FFD459"/>
<stop offset="0.192" stop-color="#FFD254"/>
<stop offset="0.417" stop-color="#FFCD46"/>
<stop offset="0.658" stop-color="#FFC52E"/>
<stop offset="0.91" stop-color="#FFB90E"/>
<stop offset="1" stop-color="#FFB400"/>
</linearGradient>
<linearGradient id="paint14_linear_2053_173" x1="110.693" y1="100.316" x2="71.1742" y2="60.7967" gradientUnits="userSpaceOnUse">
<stop stop-color="#E58200" stop-opacity="0"/>
<stop offset="0.611" stop-color="#BC5836" stop-opacity="0.612"/>
<stop offset="1" stop-color="#A64153"/>
</linearGradient>
<linearGradient id="paint15_linear_2053_173" x1="99.6914" y1="53.1854" x2="154.599" y2="108.093" gradientUnits="userSpaceOnUse">
<stop stop-color="#FFD459"/>
<stop offset="0.192" stop-color="#FFD254"/>
<stop offset="0.417" stop-color="#FFCD46"/>
<stop offset="0.658" stop-color="#FFC52E"/>
<stop offset="0.91" stop-color="#FFB90E"/>
<stop offset="1" stop-color="#FFB400"/>
</linearGradient>
<linearGradient id="paint16_linear_2053_173" x1="133.511" y1="147.236" x2="133.511" y2="168.598" gradientUnits="userSpaceOnUse">
<stop stop-color="#E58200" stop-opacity="0"/>
<stop offset="0.611" stop-color="#BC5836" stop-opacity="0.612"/>
<stop offset="1" stop-color="#A64153"/>
</linearGradient>
<linearGradient id="paint17_linear_2053_173" x1="108.52" y1="107.215" x2="136.029" y2="107.215" gradientUnits="userSpaceOnUse">
<stop stop-color="#D3E843"/>
<stop offset="0.624" stop-color="#A9C93C"/>
<stop offset="1" stop-color="#8DB437"/>
</linearGradient>
<linearGradient id="paint18_linear_2053_173" x1="118.738" y1="104.258" x2="118.738" y2="61.2889" gradientUnits="userSpaceOnUse">
<stop offset="0.003" stop-color="#8DB437" stop-opacity="0"/>
<stop offset="0.481" stop-color="#698927" stop-opacity="0.478"/>
<stop offset="1" stop-color="#455F18"/>
</linearGradient>
<linearGradient id="paint19_linear_2053_173" x1="154.96" y1="107.217" x2="95.0185" y2="107.217" gradientUnits="userSpaceOnUse">
<stop stop-color="#E58200" stop-opacity="0"/>
<stop offset="0.611" stop-color="#BC5836" stop-opacity="0.612"/>
<stop offset="1" stop-color="#A64153"/>
</linearGradient>
<clipPath id="clip0_2053_173">
<rect width="126" height="126" fill="white" transform="translate(76 30)"/>
</clipPath>
</defs>
</svg>
