<svg width="250" height="81" viewBox="0 0 250 81" fill="none" xmlns="http://www.w3.org/2000/svg">
<rect width="250" height="81" rx="12" fill="black"/>
<path d="M72.5114 33.5227V28.4375H73.4489C73.7708 28.1439 74.0739 27.7296 74.358 27.1946C74.6468 26.6548 74.8906 25.9351 75.0895 25.0355C75.2931 24.1312 75.428 22.983 75.4943 21.5909L75.8068 15.4545H84.4432V28.4375H86.1193V33.4943H84.4432V30H74.1875V33.5227H72.5114ZM75.5511 28.4375H82.767V17.017H77.3977L77.1705 21.5909C77.1136 22.6515 77.0142 23.6127 76.8722 24.4744C76.7301 25.3314 76.5478 26.0914 76.3253 26.7543C76.1027 27.4124 75.8447 27.9735 75.5511 28.4375ZM92.9854 30.2273C92.0006 30.2273 91.1365 29.9929 90.3931 29.5241C89.6545 29.0554 89.0768 28.3996 88.6602 27.5568C88.2482 26.714 88.0423 25.7292 88.0423 24.6023C88.0423 23.4659 88.2482 22.474 88.6602 21.6264C89.0768 20.7789 89.6545 20.1207 90.3931 19.652C91.1365 19.1832 92.0006 18.9489 92.9854 18.9489C93.9703 18.9489 94.832 19.1832 95.5707 19.652C96.314 20.1207 96.8917 20.7789 97.3036 21.6264C97.7203 22.474 97.9286 23.4659 97.9286 24.6023C97.9286 25.7292 97.7203 26.714 97.3036 27.5568C96.8917 28.3996 96.314 29.0554 95.5707 29.5241C94.832 29.9929 93.9703 30.2273 92.9854 30.2273ZM92.9854 28.7216C93.7335 28.7216 94.3491 28.5298 94.832 28.1463C95.315 27.7628 95.6725 27.2585 95.9045 26.6335C96.1365 26.0085 96.2525 25.3314 96.2525 24.6023C96.2525 23.8731 96.1365 23.1937 95.9045 22.5639C95.6725 21.9342 95.315 21.4252 94.832 21.0369C94.3491 20.6487 93.7335 20.4545 92.9854 20.4545C92.2373 20.4545 91.6218 20.6487 91.1388 21.0369C90.6559 21.4252 90.2984 21.9342 90.0664 22.5639C89.8344 23.1937 89.7184 23.8731 89.7184 24.6023C89.7184 25.3314 89.8344 26.0085 90.0664 26.6335C90.2984 27.2585 90.6559 27.7628 91.1388 28.1463C91.6218 28.5298 92.2373 28.7216 92.9854 28.7216ZM104.919 30.2273C103.896 30.2273 103.016 29.9858 102.277 29.5028C101.538 29.0199 100.97 28.3546 100.572 27.5071C100.175 26.6596 99.9759 25.6913 99.9759 24.6023C99.9759 23.4943 100.179 22.5166 100.587 21.669C100.999 20.8168 101.571 20.1515 102.305 19.6733C103.044 19.1903 103.906 18.9489 104.891 18.9489C105.658 18.9489 106.349 19.0909 106.964 19.375C107.58 19.6591 108.084 20.0568 108.477 20.5682C108.87 21.0795 109.114 21.6761 109.209 22.358H107.533C107.405 21.8608 107.121 21.4205 106.68 21.0369C106.245 20.6487 105.658 20.4545 104.919 20.4545C104.266 20.4545 103.693 20.625 103.2 20.9659C102.713 21.3021 102.331 21.7779 102.057 22.3935C101.787 23.0043 101.652 23.7216 101.652 24.5455C101.652 25.3883 101.785 26.1222 102.05 26.7472C102.32 27.3722 102.698 27.8575 103.186 28.2031C103.679 28.5488 104.256 28.7216 104.919 28.7216C105.355 28.7216 105.75 28.6458 106.105 28.4943C106.46 28.3428 106.761 28.125 107.007 27.8409C107.253 27.5568 107.429 27.2159 107.533 26.8182H109.209C109.114 27.4621 108.88 28.0421 108.506 28.5582C108.136 29.0696 107.646 29.4768 107.036 29.7798C106.429 30.0781 105.724 30.2273 104.919 30.2273ZM110.8 20.6534V19.0909H119.663V20.6534H116.084V30H114.408V20.6534H110.8ZM123.188 34.0909C122.904 34.0909 122.65 34.0672 122.428 34.0199C122.205 33.9773 122.051 33.9347 121.966 33.892L122.392 32.4148C122.8 32.5189 123.159 32.5568 123.472 32.5284C123.784 32.5 124.061 32.3603 124.303 32.1094C124.549 31.8632 124.774 31.4631 124.978 30.9091L125.29 30.0568L121.256 19.0909H123.074L126.086 27.7841H126.199L129.211 19.0909H131.029L126.398 31.5909C126.19 32.1544 125.932 32.6207 125.624 32.9901C125.316 33.3641 124.959 33.6411 124.551 33.821C124.149 34.0009 123.694 34.0909 123.188 34.0909ZM133.241 30V19.0909H141.821V30H140.145V20.6534H134.917V30H133.241ZM152.183 23.7784V25.3409H146.16V23.7784H152.183ZM146.558 19.0909V30H144.882V19.0909H146.558ZM153.461 19.0909V30H151.785V19.0909H153.461ZM160.954 30.2273C159.969 30.2273 159.105 29.9929 158.362 29.5241C157.623 29.0554 157.046 28.3996 156.629 27.5568C156.217 26.714 156.011 25.7292 156.011 24.6023C156.011 23.4659 156.217 22.474 156.629 21.6264C157.046 20.7789 157.623 20.1207 158.362 19.652C159.105 19.1832 159.969 18.9489 160.954 18.9489C161.939 18.9489 162.801 19.1832 163.539 19.652C164.283 20.1207 164.86 20.7789 165.272 21.6264C165.689 22.474 165.897 23.4659 165.897 24.6023C165.897 25.7292 165.689 26.714 165.272 27.5568C164.86 28.3996 164.283 29.0554 163.539 29.5241C162.801 29.9929 161.939 30.2273 160.954 30.2273ZM160.954 28.7216C161.702 28.7216 162.318 28.5298 162.801 28.1463C163.284 27.7628 163.641 27.2585 163.873 26.6335C164.105 26.0085 164.221 25.3314 164.221 24.6023C164.221 23.8731 164.105 23.1937 163.873 22.5639C163.641 21.9342 163.284 21.4252 162.801 21.0369C162.318 20.6487 161.702 20.4545 160.954 20.4545C160.206 20.4545 159.591 20.6487 159.108 21.0369C158.625 21.4252 158.267 21.9342 158.035 22.5639C157.803 23.1937 157.687 23.8731 157.687 24.6023C157.687 25.3314 157.803 26.0085 158.035 26.6335C158.267 27.2585 158.625 27.7628 159.108 28.1463C159.591 28.5298 160.206 28.7216 160.954 28.7216ZM174.081 30V19.0909H178.541C179.715 19.0909 180.648 19.3561 181.339 19.8864C182.031 20.4167 182.376 21.1174 182.376 21.9886C182.376 22.6515 182.18 23.1652 181.787 23.5298C181.394 23.8897 180.89 24.1335 180.274 24.2614C180.677 24.3182 181.067 24.4602 181.446 24.6875C181.83 24.9148 182.147 25.2273 182.398 25.625C182.649 26.018 182.774 26.5009 182.774 27.0739C182.774 27.6326 182.632 28.1321 182.348 28.5724C182.064 29.0128 181.657 29.3608 181.126 29.6165C180.596 29.8722 179.962 30 179.223 30H174.081ZM175.672 28.4659H179.223C179.801 28.4659 180.253 28.3286 180.58 28.054C180.906 27.7794 181.07 27.4053 181.07 26.9318C181.07 26.3684 180.906 25.9257 180.58 25.6037C180.253 25.277 179.801 25.1136 179.223 25.1136H175.672V28.4659ZM175.672 23.6648H178.541C178.991 23.6648 179.377 23.6032 179.699 23.4801C180.021 23.3523 180.267 23.1723 180.438 22.9403C180.613 22.7036 180.7 22.4242 180.7 22.1023C180.7 21.643 180.509 21.2831 180.125 21.0227C179.741 20.7576 179.214 20.625 178.541 20.625H175.672V23.6648Z" fill="white"/>
<path d="M88.0185 48.0696C87.8262 47.4664 87.5677 46.9261 87.2429 46.4489C86.9247 45.965 86.5436 45.554 86.0994 45.2159C85.6553 44.8712 85.1482 44.6094 84.5781 44.4304C84.0147 44.2514 83.3949 44.1619 82.7188 44.1619C81.572 44.1619 80.5379 44.4569 79.6165 45.0469C78.6951 45.6368 77.9659 46.5019 77.429 47.642C76.8987 48.7756 76.6335 50.1643 76.6335 51.8082C76.6335 53.4588 76.902 54.8542 77.4389 55.9943C77.9759 57.1345 78.7116 57.9995 79.6463 58.5895C80.581 59.1795 81.6449 59.4744 82.8381 59.4744C83.9451 59.4744 84.9096 59.2491 85.7315 58.7983C86.5601 58.3475 87.1998 57.7112 87.6506 56.8892C88.108 56.0606 88.3366 55.0862 88.3366 53.9659L89.1321 54.1151H83.3054V51.5795H91.3097V53.8963C91.3097 55.6065 90.9451 57.0914 90.2159 58.3509C89.4934 59.6037 88.4924 60.5715 87.2131 61.2543C85.9403 61.937 84.482 62.2784 82.8381 62.2784C80.9953 62.2784 79.3778 61.8542 77.9858 61.0057C76.6004 60.1572 75.5199 58.9541 74.7443 57.3963C73.9688 55.8319 73.581 53.9759 73.581 51.8281C73.581 50.2041 73.8063 48.7457 74.2571 47.4531C74.7079 46.1605 75.3409 45.0634 76.1562 44.1619C76.9782 43.2538 77.9427 42.5611 79.0497 42.0838C80.1634 41.5999 81.3797 41.358 82.6989 41.358C83.7992 41.358 84.8234 41.5204 85.7713 41.8452C86.7259 42.17 87.5743 42.6307 88.3168 43.2273C89.0658 43.8239 89.6856 44.5331 90.1761 45.3551C90.6667 46.1705 90.9981 47.0753 91.1705 48.0696H88.0185ZM101.404 62.3082C99.9727 62.3082 98.7231 61.9801 97.6559 61.3239C96.5887 60.6676 95.7601 59.7495 95.1701 58.5696C94.5801 57.3897 94.2852 56.0109 94.2852 54.4332C94.2852 52.849 94.5801 51.4635 95.1701 50.277C95.7601 49.0904 96.5887 48.169 97.6559 47.5128C98.7231 46.8565 99.9727 46.5284 101.404 46.5284C102.836 46.5284 104.086 46.8565 105.153 47.5128C106.22 48.169 107.049 49.0904 107.639 50.277C108.229 51.4635 108.524 52.849 108.524 54.4332C108.524 56.0109 108.229 57.3897 107.639 58.5696C107.049 59.7495 106.22 60.6676 105.153 61.3239C104.086 61.9801 102.836 62.3082 101.404 62.3082ZM101.414 59.8125C102.342 59.8125 103.111 59.5672 103.721 59.0767C104.331 58.5862 104.782 57.9332 105.074 57.1179C105.372 56.3026 105.521 55.4044 105.521 54.4233C105.521 53.4489 105.372 52.554 105.074 51.7386C104.782 50.9167 104.331 50.2571 103.721 49.7599C103.111 49.2628 102.342 49.0142 101.414 49.0142C100.48 49.0142 99.7042 49.2628 99.0877 49.7599C98.4779 50.2571 98.0238 50.9167 97.7255 51.7386C97.4338 52.554 97.288 53.4489 97.288 54.4233C97.288 55.4044 97.4338 56.3026 97.7255 57.1179C98.0238 57.9332 98.4779 58.5862 99.0877 59.0767C99.7042 59.5672 100.48 59.8125 101.414 59.8125ZM118.276 62.3082C116.844 62.3082 115.594 61.9801 114.527 61.3239C113.46 60.6676 112.631 59.7495 112.041 58.5696C111.451 57.3897 111.156 56.0109 111.156 54.4332C111.156 52.849 111.451 51.4635 112.041 50.277C112.631 49.0904 113.46 48.169 114.527 47.5128C115.594 46.8565 116.844 46.5284 118.276 46.5284C119.707 46.5284 120.957 46.8565 122.024 47.5128C123.091 48.169 123.92 49.0904 124.51 50.277C125.1 51.4635 125.395 52.849 125.395 54.4332C125.395 56.0109 125.1 57.3897 124.51 58.5696C123.92 59.7495 123.091 60.6676 122.024 61.3239C120.957 61.9801 119.707 62.3082 118.276 62.3082ZM118.286 59.8125C119.214 59.8125 119.982 59.5672 120.592 59.0767C121.202 58.5862 121.653 57.9332 121.945 57.1179C122.243 56.3026 122.392 55.4044 122.392 54.4233C122.392 53.4489 122.243 52.554 121.945 51.7386C121.653 50.9167 121.202 50.2571 120.592 49.7599C119.982 49.2628 119.214 49.0142 118.286 49.0142C117.351 49.0142 116.575 49.2628 115.959 49.7599C115.349 50.2571 114.895 50.9167 114.597 51.7386C114.305 52.554 114.159 53.4489 114.159 54.4233C114.159 55.4044 114.305 56.3026 114.597 57.1179C114.895 57.9332 115.349 58.5862 115.959 59.0767C116.575 59.5672 117.351 59.8125 118.286 59.8125ZM135.117 68.0455C133.904 68.0455 132.86 67.8864 131.985 67.5682C131.116 67.25 130.407 66.8291 129.857 66.3054C129.307 65.7817 128.896 65.2083 128.624 64.5852L131.179 63.5312C131.358 63.8229 131.597 64.1312 131.895 64.456C132.2 64.7874 132.611 65.0691 133.128 65.3011C133.652 65.5331 134.325 65.6491 135.147 65.6491C136.274 65.6491 137.205 65.3741 137.941 64.8239C138.676 64.2803 139.044 63.4119 139.044 62.2188V59.2159H138.855C138.676 59.5407 138.418 59.902 138.08 60.2997C137.748 60.6974 137.291 61.0421 136.708 61.3338C136.124 61.6255 135.365 61.7713 134.431 61.7713C133.224 61.7713 132.137 61.4896 131.169 60.9261C130.208 60.3561 129.446 59.5175 128.882 58.4105C128.326 57.2969 128.047 55.928 128.047 54.304C128.047 52.6799 128.322 51.2879 128.873 50.1278C129.429 48.9678 130.192 48.0795 131.159 47.4631C132.127 46.84 133.224 46.5284 134.451 46.5284C135.399 46.5284 136.164 46.6875 136.748 47.0057C137.331 47.3172 137.785 47.6818 138.11 48.0994C138.441 48.517 138.696 48.8849 138.875 49.2031H139.094V46.7273H142.007V62.3381C142.007 63.6506 141.703 64.7277 141.093 65.5696C140.483 66.4115 139.658 67.0346 138.617 67.4389C137.583 67.8433 136.416 68.0455 135.117 68.0455ZM135.087 59.3054C135.942 59.3054 136.665 59.1065 137.255 58.7088C137.851 58.3045 138.302 57.7277 138.607 56.9787C138.918 56.223 139.074 55.3182 139.074 54.2642C139.074 53.2367 138.922 52.3319 138.617 51.5497C138.312 50.7675 137.864 50.1577 137.275 49.7202C136.685 49.276 135.955 49.054 135.087 49.054C134.192 49.054 133.446 49.286 132.85 49.75C132.253 50.2074 131.802 50.8305 131.498 51.6193C131.199 52.4081 131.05 53.2898 131.05 54.2642C131.05 55.2652 131.203 56.1435 131.507 56.8991C131.812 57.6548 132.263 58.2448 132.86 58.669C133.463 59.0933 134.205 59.3054 135.087 59.3054ZM148.968 41.6364V62H145.995V41.6364H148.968ZM159.55 62.3082C158.045 62.3082 156.749 61.9867 155.662 61.3438C154.581 60.6941 153.746 59.7827 153.156 58.6094C152.573 57.4295 152.281 56.0473 152.281 54.4631C152.281 52.8987 152.573 51.5199 153.156 50.3267C153.746 49.1335 154.568 48.2022 155.622 47.5327C156.683 46.8632 157.922 46.5284 159.341 46.5284C160.203 46.5284 161.038 46.6709 161.847 46.956C162.655 47.241 163.381 47.6884 164.024 48.2983C164.667 48.9081 165.174 49.7003 165.545 50.6747C165.917 51.6425 166.102 52.8191 166.102 54.2045V55.2585H153.962V53.0312H163.189C163.189 52.2491 163.03 51.5563 162.712 50.9531C162.393 50.3433 161.946 49.8627 161.369 49.5114C160.799 49.16 160.13 48.9844 159.361 48.9844C158.526 48.9844 157.796 49.1899 157.173 49.6009C156.557 50.0052 156.08 50.5355 155.741 51.1918C155.41 51.8414 155.244 52.5473 155.244 53.3097V55.0497C155.244 56.0705 155.423 56.9389 155.781 57.6548C156.146 58.3707 156.653 58.9176 157.303 59.2955C157.952 59.6667 158.711 59.8523 159.58 59.8523C160.143 59.8523 160.657 59.7727 161.121 59.6136C161.585 59.4479 161.986 59.2027 162.324 58.8778C162.662 58.553 162.92 58.152 163.099 57.6747L165.913 58.1818C165.688 59.0104 165.284 59.7363 164.7 60.3594C164.124 60.9759 163.398 61.4564 162.523 61.8011C161.654 62.1392 160.663 62.3082 159.55 62.3082ZM177.05 62V41.6364H184.308C185.893 41.6364 187.205 41.9247 188.246 42.5014C189.286 43.0781 190.065 43.8669 190.582 44.8679C191.099 45.8622 191.358 46.9825 191.358 48.2287C191.358 49.4815 191.096 50.6084 190.572 51.6094C190.055 52.6037 189.273 53.3925 188.226 53.9759C187.185 54.5526 185.876 54.8409 184.298 54.8409H179.307V52.2358H184.02C185.021 52.2358 185.833 52.0634 186.456 51.7188C187.079 51.3674 187.536 50.8902 187.828 50.2869C188.12 49.6837 188.266 48.9976 188.266 48.2287C188.266 47.4598 188.12 46.777 187.828 46.1804C187.536 45.5838 187.076 45.1165 186.446 44.7784C185.823 44.4403 185.001 44.2713 183.98 44.2713H180.122V62H177.05ZM197.694 41.6364V62H194.721V41.6364H197.694ZM206.138 62.3381C205.171 62.3381 204.296 62.1591 203.513 61.8011C202.731 61.4366 202.112 60.9096 201.654 60.2202C201.203 59.5308 200.978 58.6856 200.978 57.6847C200.978 56.8229 201.144 56.1136 201.475 55.5568C201.807 55 202.254 54.5592 202.817 54.2344C203.381 53.9096 204.011 53.6643 204.707 53.4986C205.403 53.3329 206.112 53.2069 206.835 53.1207C207.749 53.0147 208.492 52.9285 209.062 52.8622C209.632 52.7893 210.046 52.6733 210.305 52.5142C210.563 52.3551 210.692 52.0966 210.692 51.7386V51.669C210.692 50.8007 210.447 50.1278 209.957 49.6506C209.473 49.1733 208.75 48.9347 207.789 48.9347C206.788 48.9347 205.999 49.1567 205.423 49.6009C204.853 50.0384 204.458 50.5256 204.239 51.0625L201.445 50.4261C201.777 49.4981 202.261 48.7491 202.897 48.179C203.54 47.6023 204.279 47.1847 205.114 46.9261C205.95 46.661 206.828 46.5284 207.749 46.5284C208.359 46.5284 209.005 46.6013 209.688 46.7472C210.378 46.8864 211.021 47.1449 211.617 47.5227C212.22 47.9006 212.714 48.4408 213.099 49.1435C213.483 49.8395 213.675 50.7443 213.675 51.858V62H210.772V59.9119H210.653C210.46 60.2964 210.172 60.6742 209.788 61.0455C209.403 61.4167 208.909 61.7249 208.306 61.9702C207.703 62.2154 206.98 62.3381 206.138 62.3381ZM206.785 59.9517C207.607 59.9517 208.309 59.7893 208.893 59.4645C209.483 59.1397 209.93 58.7154 210.235 58.1918C210.547 57.6615 210.702 57.0947 210.702 56.4915V54.5227C210.596 54.6288 210.391 54.7282 210.086 54.821C209.788 54.9072 209.446 54.9834 209.062 55.0497C208.677 55.1094 208.303 55.1657 207.938 55.2188C207.574 55.2652 207.269 55.3049 207.023 55.3381C206.447 55.411 205.92 55.5336 205.442 55.706C204.972 55.8783 204.594 56.1269 204.309 56.4517C204.031 56.7699 203.891 57.1941 203.891 57.7244C203.891 58.4602 204.163 59.017 204.707 59.3949C205.25 59.7661 205.943 59.9517 206.785 59.9517ZM218.968 67.7273C218.524 67.7273 218.119 67.6908 217.755 67.6179C217.39 67.5516 217.118 67.4787 216.939 67.3991L217.655 64.9631C218.199 65.1089 218.683 65.1719 219.107 65.152C219.531 65.1321 219.906 64.973 220.23 64.6747C220.562 64.3764 220.854 63.8892 221.105 63.2131L221.473 62.1989L215.885 46.7273H219.067L222.935 58.5795H223.094L226.962 46.7273H230.154L223.86 64.0384C223.568 64.8338 223.197 65.5066 222.746 66.0568C222.295 66.6136 221.758 67.0313 221.135 67.3097C220.512 67.5881 219.79 67.7273 218.968 67.7273Z" fill="white"/>
<mask id="mask0_1_604" style="mask-type:alpha" maskUnits="userSpaceOnUse" x="28" y="28" width="34" height="36">
<path d="M60.3166 43.8006C62.0611 44.7606 62.0611 47.2394 60.3166 48.1994L32.4149 63.5531C30.7157 64.4881 28.625 63.2747 28.625 61.3537V30.6464C28.625 28.7253 30.7157 27.512 32.4149 28.447L60.3166 43.8006Z" fill="#C4C4C4"/>
</mask>
<g mask="url(#mask0_1_604)">
<path d="M29.4978 63.2516L46.9019 45.7496L29.7844 28.5359C29.1015 28.9737 28.625 29.7295 28.625 30.6466V61.3538C28.625 62.1363 28.9718 62.8013 29.4978 63.2516Z" fill="url(#paint0_linear_1_604)"/>
<path d="M60.3161 43.8004C62.0608 44.7605 62.0608 47.2392 60.3161 48.1992L53.2771 52.0727L46.9016 45.7491L52.952 39.748L60.3161 43.8004Z" fill="url(#paint1_linear_1_604)"/>
<path d="M53.2776 52.073L46.902 45.7495L29.4978 63.2515C30.2632 63.9068 31.4078 64.1074 32.415 63.5532L53.2776 52.073Z" fill="url(#paint2_linear_1_604)"/>
<path d="M29.7837 28.5356L46.9012 45.7493L52.9517 39.7483L32.4141 28.447C31.5262 27.9583 30.5313 28.0564 29.7837 28.5356Z" fill="url(#paint3_linear_1_604)"/>
</g>
<defs>
<linearGradient id="paint0_linear_1_604" x1="40.5557" y1="38.9517" x2="28.7227" y2="50.8821" gradientUnits="userSpaceOnUse">
<stop stop-color="#00C3FF"/>
<stop offset="1" stop-color="#1BE2FA"/>
</linearGradient>
<linearGradient id="paint1_linear_1_604" x1="46.9016" y1="45.7492" x2="62.64" y2="45.7492" gradientUnits="userSpaceOnUse">
<stop stop-color="#FFCE00"/>
<stop offset="1" stop-color="#FFEA00"/>
</linearGradient>
<linearGradient id="paint2_linear_1_604" x1="29.1328" y1="65.388" x2="50.0681" y2="48.6037" gradientUnits="userSpaceOnUse">
<stop stop-color="#DE2453"/>
<stop offset="1" stop-color="#FE3944"/>
</linearGradient>
<linearGradient id="paint3_linear_1_604" x1="30.1474" y1="26.6144" x2="50.0709" y2="42.8877" gradientUnits="userSpaceOnUse">
<stop stop-color="#11D574"/>
<stop offset="1" stop-color="#01F176"/>
</linearGradient>
</defs>
</svg>
