<svg width="44" height="44" viewBox="0 0 44 44" fill="none" xmlns="http://www.w3.org/2000/svg">
<g clip-path="url(#clip0_1_581)">
<path d="M22 44C34.1503 44 44 34.1503 44 22C44 9.84974 34.1503 0 22 0C9.84974 0 0 9.84974 0 22C0 34.1503 9.84974 44 22 44Z" fill="#FF9800"/>
<path d="M20.5222 26.4959C18.8167 26.3181 17.279 25.898 15.9624 24.8683C15.7991 24.7402 15.6304 24.6167 15.4813 24.4736C14.9051 23.9202 14.847 23.2863 15.303 22.6331C15.6931 22.0742 16.3479 21.9246 17.0285 22.2456C17.1603 22.3078 17.2859 22.3854 17.4062 22.4688C19.8598 24.1547 23.2304 24.2013 25.6933 22.5446C25.9373 22.3576 26.1981 22.205 26.5004 22.1271C27.0882 21.9762 27.6363 22.1921 27.9517 22.7064C28.3121 23.2937 28.3075 23.867 27.8635 24.3229C27.1824 25.022 26.3633 25.5278 25.4532 25.8807C24.5926 26.2144 23.65 26.3823 22.7171 26.4939C22.8579 26.6471 22.9242 26.7224 23.0122 26.8109C24.279 28.0837 25.5513 29.3512 26.814 30.6278C27.2442 31.0629 27.334 31.6022 27.0972 32.1082C26.8382 32.6612 26.2585 33.025 25.6901 32.9861C25.3299 32.9612 25.0491 32.7819 24.7995 32.5306C23.8436 31.5686 22.8696 30.6244 21.933 29.6442C21.6604 29.3592 21.5293 29.4131 21.2888 29.6606C20.3271 30.6507 19.3497 31.6255 18.3665 32.5948C17.925 33.0301 17.3997 33.1084 16.8877 32.8598C16.3435 32.596 15.9972 32.0405 16.0239 31.4822C16.0424 31.1046 16.2281 30.8161 16.4873 30.5573C17.741 29.3055 18.9911 28.0505 20.2418 26.7966C20.3245 26.7132 20.4017 26.6247 20.5222 26.4959Z" fill="white"/>
<path d="M21.561 22.1354C18.5185 22.1251 16.0236 19.6028 16.0414 16.5554C16.0589 13.4744 18.5553 10.9915 21.6278 11C24.7066 11.0083 27.1777 13.5269 27.1623 16.64C27.1466 19.6811 24.6344 22.146 21.561 22.1354ZM24.3262 16.5628C24.3209 15.0497 23.1158 13.8451 21.6057 13.8437C20.083 13.8421 18.8671 15.0686 18.8788 16.5955C18.8901 18.1028 20.1055 19.2989 21.6198 19.2934C23.1294 19.2881 24.3312 18.0756 24.3262 16.5628Z" fill="white"/>
</g>
<defs>
<clipPath id="clip0_1_581">
<rect width="44" height="44" fill="white"/>
</clipPath>
</defs>
</svg>
