<svg width="184" height="219" viewBox="0 0 184 219" fill="none" xmlns="http://www.w3.org/2000/svg">
<path d="M51.4926 128.369L53.6791 120.208C55.0705 115.016 57.1278 111.459 59.851 109.538C62.5742 107.618 67.0166 106.864 73.178 107.279L89.5095 109.137C91.4112 109.293 92.7912 109.089 93.6494 108.523C94.612 107.898 95.3032 106.802 95.7228 105.236L96.1866 103.505C96.6946 101.609 96.666 100.232 96.1009 99.3741C95.5578 98.4335 94.3384 97.7092 92.4426 97.2013L61.533 88.919C59.6372 88.4111 58.219 88.4286 57.2784 88.9717C56.3378 89.5147 55.6245 90.6929 55.1387 92.5063L53.7472 97.6991L28.2777 90.8746L30.9943 80.7362C32.8053 73.9773 35.6966 69.4514 39.668 67.1585C43.7219 64.8877 49.087 64.6467 55.7635 66.4357L109.67 80.8799C116.346 82.6688 120.831 85.549 123.124 89.5205C125.499 93.514 125.781 98.8902 123.97 105.649L121.883 113.438C120.359 119.126 117.796 123.253 114.192 125.822C110.589 128.39 105.407 129.431 98.6462 128.945L82.8093 127.219C81.0724 127.107 79.7749 127.333 78.9167 127.898C78.141 128.486 77.5433 129.562 77.1236 131.128L76.0966 134.961L51.4926 128.369ZM41.3517 155.335L47.0498 134.069L76.9703 142.086L71.2722 163.352L41.3517 155.335Z" fill="#24335C"/>
<path d="M57.6161 124.833L59.8026 116.673C61.194 111.48 63.2513 107.924 65.9746 106.003C68.6978 104.082 73.1401 103.329 79.3015 103.743L95.6331 105.601C97.5348 105.758 98.9147 105.553 99.7729 104.988C100.736 104.362 101.427 103.267 101.846 101.701L102.31 99.9697C102.818 98.0739 102.79 96.6969 102.224 95.8387C101.681 94.8981 100.462 94.1738 98.5662 93.6659L67.6565 85.3836C65.7607 84.8757 64.3425 84.8932 63.4019 85.4363C62.4613 85.9793 61.7481 87.1575 61.2622 88.9709L59.8708 94.1637L34.4012 87.3392L37.1178 77.2008C38.9289 70.4419 41.8201 65.916 45.7915 63.6231C49.8454 61.3523 55.2106 61.1113 61.8871 62.9003L115.793 77.3445C122.47 79.1334 126.955 82.0136 129.248 85.9851C131.623 89.9786 131.905 95.3548 130.094 102.114L128.007 109.903C126.483 115.59 123.919 119.718 120.316 122.286C116.712 124.854 111.53 125.895 104.77 125.409L88.9328 123.683C87.1959 123.571 85.8984 123.798 85.0402 124.363C84.2645 124.95 83.6668 126.027 83.2472 127.593L82.2202 131.426L57.6161 124.833ZM47.4752 151.799L53.1734 130.534L83.0939 138.551L77.3957 159.817L47.4752 151.799Z" fill="#1D326D"/>
<path d="M63.7401 121.298L65.9266 113.137C67.318 107.945 69.3754 104.388 72.0986 102.467C74.8218 100.547 79.2641 99.7934 85.4255 100.208L101.757 102.066C103.659 102.222 105.039 102.017 105.897 101.452C106.86 100.827 107.551 99.7311 107.97 98.165L108.434 96.434C108.942 94.5382 108.914 93.1613 108.348 92.3031C107.805 91.3625 106.586 90.6382 104.69 90.1302L73.7806 81.848C71.8848 81.34 70.4666 81.3576 69.526 81.9006C68.5854 82.4437 67.8721 83.6219 67.3862 85.4353L65.9948 90.6281L40.5253 83.8035L43.2418 73.6652C45.0529 66.9063 47.9441 62.3804 51.9156 60.0875C55.9694 57.8166 61.3346 57.5757 68.0111 59.3647L121.917 73.8088C128.594 75.5978 133.079 78.478 135.372 82.4494C137.747 86.443 138.029 91.8192 136.218 98.5781L134.131 106.367C132.607 112.055 130.043 116.182 126.44 118.751C122.836 121.319 117.654 122.36 110.894 121.873L95.0568 120.148C93.32 120.036 92.0224 120.262 91.1643 120.827C90.3885 121.415 89.7908 122.491 89.3712 124.057L88.3442 127.89L63.7401 121.298ZM53.5992 148.264L59.2974 126.998L89.2179 135.015L83.5197 156.281L53.5992 148.264Z" fill="#3E3A77"/>
<path d="M69.8637 117.762L72.0502 109.602C73.4416 104.409 75.4989 100.852 78.2221 98.9316C80.9453 97.011 85.3877 96.2578 91.5491 96.6719L107.881 98.5301C109.782 98.6863 111.162 98.4818 112.02 97.9167C112.983 97.2912 113.674 96.1954 114.094 94.6293L114.558 92.8984C115.066 91.0026 115.037 89.6256 114.472 88.7674C113.929 87.8268 112.71 87.1025 110.814 86.5946L79.9041 78.3124C78.0083 77.8044 76.5901 77.8219 75.6495 78.365C74.7089 78.908 73.9956 80.0863 73.5098 81.8996L72.1183 87.0924L46.6488 80.2679L49.3654 70.1295C51.1764 63.3706 54.0677 58.8447 58.0391 56.5518C62.093 54.281 67.4581 54.0401 74.1346 55.829L128.041 70.2732C134.717 72.0621 139.202 74.9423 141.495 78.9138C143.87 82.9073 144.153 88.2835 142.342 95.0424L140.254 102.832C138.73 108.519 136.167 112.647 132.563 115.215C128.96 117.783 123.778 118.824 117.017 118.338L101.18 116.612C99.4435 116.5 98.146 116.727 97.2878 117.292C96.512 117.879 95.9144 118.956 95.4947 120.522L94.4677 124.355L69.8637 117.762ZM59.7228 144.728L65.4209 123.462L95.3414 131.479L89.6433 152.745L59.7228 144.728Z" fill="#6C3A6F"/>
<path d="M75.9872 114.227L78.1737 106.066C79.5651 100.874 81.6224 97.3168 84.3457 95.3962C87.0689 93.4756 91.5112 92.7224 97.6726 93.1365L114.004 94.9947C115.906 95.1509 117.286 94.9464 118.144 94.3813C119.107 93.7558 119.798 92.66 120.217 91.0939L120.681 89.363C121.189 87.4672 121.161 86.0902 120.596 85.232C120.052 84.2914 118.833 83.5671 116.937 83.0592L86.0276 74.777C84.1318 74.269 82.7136 74.2865 81.773 74.8296C80.8324 75.3726 80.1192 76.5509 79.6333 78.3642L78.2419 83.557L52.7723 76.7325L55.4889 66.5941C57.3 59.8352 60.1912 55.3093 64.1626 53.0164C68.2165 50.7456 73.5817 50.5047 80.2581 52.2936L134.165 66.7378C140.841 68.5267 145.326 71.4069 147.619 75.3784C149.994 79.3719 150.276 84.7481 148.465 91.507L146.378 99.2963C144.854 104.984 142.29 109.111 138.687 111.68C135.083 114.248 129.901 115.289 123.141 114.802L107.304 113.077C105.567 112.965 104.27 113.191 103.411 113.756C102.636 114.344 102.038 115.42 101.618 116.986L100.591 120.819L75.9872 114.227ZM65.8463 141.193L71.5445 119.927L101.465 127.944L95.7668 149.21L65.8463 141.193Z" fill="#B54279"/>
<path d="M82.1112 110.691L84.2977 102.531C85.6891 97.3379 87.7465 93.7812 90.4697 91.8606C93.1929 89.94 97.6352 89.1867 103.797 89.6009L120.128 91.4591C122.03 91.6153 123.41 91.4108 124.268 90.8456C125.231 90.2202 125.922 89.1244 126.341 87.5583L126.805 85.8273C127.313 83.9316 127.285 82.5546 126.72 81.6964C126.176 80.7558 124.957 80.0315 123.061 79.5235L92.1516 71.2413C90.2559 70.7333 88.8377 70.7509 87.8971 71.2939C86.9564 71.837 86.2432 73.0152 85.7573 74.8286L84.3659 80.0214L58.8964 73.1969L61.6129 63.0585C63.424 56.2996 66.3152 51.7737 70.2867 49.4808C74.3405 47.2099 79.7057 46.969 86.3822 48.758L140.289 63.2021C146.965 64.9911 151.45 67.8713 153.743 71.8427C156.118 75.8363 156.4 81.2125 154.589 87.9714L152.502 95.7606C150.978 101.448 148.414 105.576 144.811 108.144C141.207 110.712 136.025 111.753 129.265 111.267L113.428 109.541C111.691 109.429 110.394 109.656 109.535 110.221C108.76 110.808 108.162 111.885 107.742 113.451L106.715 117.284L82.1112 110.691ZM71.9703 137.657L77.6685 116.391L107.589 124.408L101.891 145.674L71.9703 137.657Z" fill="#D75C19"/>
<path d="M88.2348 107.155L90.4213 98.9953C91.8127 93.8025 93.87 90.2458 96.5932 88.3252C99.3164 86.4046 103.759 85.6513 109.92 86.0655L126.252 87.9237C128.153 88.0799 129.533 87.8754 130.392 87.3102C131.354 86.6848 132.045 85.589 132.465 84.0229L132.929 82.2919C133.437 80.3962 133.408 79.0192 132.843 78.161C132.3 77.2204 131.081 76.4961 129.185 75.9881L98.2752 67.7059C96.3794 67.1979 94.9612 67.2155 94.0206 67.7585C93.08 68.3016 92.3667 69.4798 91.8808 71.2932L90.4894 76.486L65.0199 69.6615L67.7365 59.5231C69.5475 52.7642 72.4388 48.2383 76.4102 45.9454C80.4641 43.6745 85.8292 43.4336 92.5057 45.2226L146.412 59.6667C153.089 61.4557 157.573 64.3359 159.866 68.3073C162.242 72.3009 162.524 77.6771 160.713 84.436L158.626 92.2252C157.102 97.9126 154.538 102.04 150.934 104.609C147.331 107.177 142.149 108.218 135.388 107.731L119.551 106.006C117.815 105.894 116.517 106.12 115.659 106.685C114.883 107.273 114.285 108.349 113.866 109.915L112.839 113.748L88.2348 107.155ZM78.0939 134.122L83.792 112.856L113.713 120.873L108.014 142.139L78.0939 134.122Z" fill="#E5A004"/>
<path d="M94.3588 103.62L96.5453 95.4597C97.9367 90.2669 99.994 86.7102 102.717 84.7895C105.44 82.8689 109.883 82.1157 116.044 82.5298L132.376 84.388C134.277 84.5442 135.657 84.3397 136.516 83.7746C137.478 83.1491 138.169 82.0533 138.589 80.4872L139.053 78.7563C139.561 76.8605 139.532 75.4835 138.967 74.6253C138.424 73.6847 137.205 72.9605 135.309 72.4525L104.399 64.1703C102.503 63.6623 101.085 63.6798 100.145 64.2229C99.204 64.766 98.4908 65.9442 98.0049 67.7575L96.6135 72.9503L71.1439 66.1258L73.8605 55.9874C75.6715 49.2285 78.5628 44.7026 82.5342 42.4097C86.5881 40.1389 91.9533 39.898 98.6297 41.6869L152.536 56.1311C159.213 57.92 163.697 60.8002 165.99 64.7717C168.366 68.7652 168.648 74.1414 166.837 80.9003L164.75 88.6896C163.226 94.3769 160.662 98.5047 157.058 101.073C153.455 103.641 148.273 104.682 141.512 104.196L125.675 102.47C123.939 102.358 122.641 102.585 121.783 103.15C121.007 103.737 120.409 104.814 119.99 106.38L118.963 110.212L94.3588 103.62ZM84.2179 130.586L89.916 109.32L119.837 117.337L114.138 138.603L84.2179 130.586Z" fill="#D6EA01"/>
</svg>
