<svg width="36" height="38" viewBox="0 0 36 38" fill="none" xmlns="http://www.w3.org/2000/svg">
<path d="M31.5191 21.816V29.2478C31.5191 29.7189 31.137 30.101 30.6659 30.101H13.3937V37.1451C13.3937 37.9053 12.4747 38.286 11.9372 37.7485L0.324018 26.1352C-0.00937305 25.8018 -0.00937305 25.2619 0.324018 24.9286L11.9375 13.3153C12.475 12.7778 13.3941 13.1585 13.3941 13.9187V20.9628H30.6659C31.137 20.9628 31.5191 21.3452 31.5191 21.816V21.816Z" fill="#FF6672"/>
<path d="M31.5189 21.8161V29.2479C31.5189 29.719 31.1368 30.1011 30.6657 30.1011H28.8307C29.3015 30.1011 29.6839 29.719 29.6839 29.2479V21.8161C29.6839 21.345 29.3015 20.9629 28.8307 20.9629H30.6656C31.1367 20.9629 31.5188 21.3453 31.5188 21.8161H31.5189ZM28.5745 20.9629L24.0414 25.496C23.6621 25.8744 23.162 26.0834 22.6329 26.0834C21.5266 26.0834 20.6267 25.1859 20.6267 24.0816V20.9629H28.5745Z" fill="#F92F41"/>
<path d="M34.8433 13.0715L23.2301 24.6847C22.6926 25.2222 21.7735 24.8415 21.7735 24.0813V17.0372H4.50141C4.03064 17.0372 3.64819 16.6551 3.64819 16.1841V8.75233C3.64819 8.28119 4.03064 7.89911 4.50141 7.89911H21.7735V0.855006C21.7735 0.0947839 22.6926 -0.285884 23.2301 0.251608L34.8433 11.8648C35.1767 12.1982 35.1767 12.7381 34.8433 13.0715Z" fill="#65BAFC"/>
<path d="M34.8433 13.0715L23.2301 24.6847C22.6926 25.2222 21.7735 24.8415 21.7735 24.0813V23.5929L32.8982 12.4682L21.7735 1.34351V0.855006C21.7735 0.0947839 22.6926 -0.285884 23.2301 0.251608L34.8433 11.8648C35.1767 12.1982 35.1767 12.7381 34.8433 13.0715ZM14.5404 13.9186V17.0373H6.59351L11.1266 12.5042C11.505 12.1255 12.0051 11.9167 12.5342 11.9167C13.6405 11.9167 14.5404 12.8146 14.5404 13.9186Z" fill="#0097FA"/>
<path d="M13.3934 18.159V13.9186C13.3934 13.1585 12.4744 12.7779 11.9369 13.3153L7.09351 18.159H13.3934Z" fill="#FF6672"/>
</svg>
