<svg width="18" height="18" viewBox="0 0 18 18" fill="none" xmlns="http://www.w3.org/2000/svg">
<path d="M17.9531 6.51841C17.8955 6.34004 17.7867 6.18256 17.6403 6.06558C17.4938 5.94861 17.3162 5.87733 17.1295 5.86062L11.9342 5.38885L9.87985 0.580409C9.72832 0.228029 9.38336 0 9.00008 0C8.6168 0 8.2718 0.228064 8.12034 0.581288L6.06597 5.38889L0.86985 5.86062C0.683382 5.87771 0.506027 5.94914 0.359775 6.06607C0.213523 6.183 0.104806 6.34028 0.0471024 6.51841C-0.0714123 6.88292 0.0380319 7.2827 0.326848 7.5347L4.2539 10.9787L3.09589 16.0796C3.01117 16.4547 3.15672 16.8424 3.46793 17.0674C3.63517 17.1882 3.83089 17.2497 4.02823 17.2497C4.19839 17.2497 4.36714 17.2039 4.51867 17.1132L9.00008 14.4348L13.4799 17.1132C13.8077 17.3105 14.2209 17.2924 14.5314 17.0674C14.6834 16.9573 14.7997 16.805 14.8659 16.6294C14.932 16.4538 14.9451 16.2626 14.9035 16.0796L13.7455 10.9787L17.6725 7.53541C17.8138 7.41203 17.9157 7.24986 17.9655 7.06905C18.0154 6.88825 18.0111 6.69677 17.9531 6.51841Z" fill="#FFC107"/>
</svg>
