<svg width="44" height="44" viewBox="0 0 44 44" fill="none" xmlns="http://www.w3.org/2000/svg">
<g clip-path="url(#clip0_1_565)">
<path d="M22 44C34.1503 44 44 34.1503 44 22C44 9.84974 34.1503 0 22 0C9.84974 0 0 9.84974 0 22C0 34.1503 9.84974 44 22 44Z" fill="#00C2FF"/>
<mask id="mask0_1_565" style="mask-type:luminance" maskUnits="userSpaceOnUse" x="12" y="14" width="16" height="16">
<path d="M28 14H12V30H28V14Z" fill="white"/>
</mask>
<g mask="url(#mask0_1_565)">
<path d="M18.2781 24.1206L18.0135 27.8433C18.3921 27.8433 18.5561 27.6806 18.7528 27.4853L20.5281 25.7886L24.2068 28.4826C24.8815 28.8586 25.3568 28.6606 25.5388 27.8619L27.9535 16.5473C28.1675 15.55 27.5935 15.1593 26.9361 15.4039L12.7428 20.8379C11.7741 21.2139 11.7888 21.7539 12.5781 21.9986L16.2068 23.1273L24.6355 17.8533C25.0321 17.5906 25.3928 17.7359 25.0961 17.9986L18.2781 24.1206Z" fill="white"/>
</g>
</g>
<defs>
<clipPath id="clip0_1_565">
<rect width="44" height="44" fill="white"/>
</clipPath>
</defs>
</svg>
