<svg width="44" height="44" viewBox="0 0 44 44" fill="none" xmlns="http://www.w3.org/2000/svg">
<g clip-path="url(#clip0_1_572)">
<path d="M22 44C34.1503 44 44 34.1503 44 22C44 9.84974 34.1503 0 22 0C9.84974 0 0 9.84974 0 22C0 34.1503 9.84974 44 22 44Z" fill="#4B729F"/>
<path d="M32.8039 27.1962C32.7448 27.0972 32.379 26.3024 30.6189 24.6688C28.7762 22.9581 29.0238 23.2359 31.2432 20.2781C32.5949 18.4767 33.1353 17.3766 32.9662 16.9063C32.8053 16.458 31.8111 16.5763 31.8111 16.5763L28.5053 16.5955C28.5053 16.5955 28.2606 16.5625 28.0777 16.6712C27.9003 16.7784 27.7862 17.0259 27.7862 17.0259C27.7862 17.0259 27.2623 18.4203 26.5637 19.6056C25.091 22.1069 24.501 22.2389 24.2604 22.0836C23.7007 21.7219 23.841 20.6287 23.841 19.8531C23.841 17.4288 24.2082 16.4181 23.1246 16.1569C22.7643 16.0702 22.5003 16.0125 21.5803 16.0029C20.4005 15.9905 19.4008 16.007 18.8356 16.2834C18.4589 16.4677 18.1687 16.8788 18.3461 16.9022C18.5647 16.9311 19.0598 17.0356 19.3224 17.3931C19.6621 17.8538 19.6497 18.8906 19.6497 18.8906C19.6497 18.8906 19.845 21.7439 19.1945 22.0987C18.7476 22.3421 18.1357 21.8457 16.8225 19.5754C16.1501 18.4134 15.6413 17.1277 15.6413 17.1277C15.6413 17.1277 15.5436 16.8884 15.369 16.7605C15.1572 16.6052 14.8602 16.5557 14.8602 16.5557L11.7167 16.5749C11.7167 16.5749 11.2451 16.5887 11.0718 16.7936C10.9178 16.9764 11.0594 17.3532 11.0594 17.3532C11.0594 17.3532 13.5209 23.1108 16.3068 26.0136C18.8631 28.6744 21.7646 28.4998 21.7646 28.4998H23.0792C23.0792 28.4998 23.4766 28.4558 23.6787 28.2371C23.8658 28.0364 23.8589 27.6596 23.8589 27.6596C23.8589 27.6596 23.8327 25.8953 24.6523 25.6354C25.4595 25.3797 26.4963 27.3406 27.595 28.0955C28.4256 28.6662 29.0568 28.541 29.0568 28.541L31.9953 28.4998C31.9953 28.4998 33.5327 28.4049 32.8039 27.1962Z" fill="white"/>
</g>
<defs>
<clipPath id="clip0_1_572">
<rect width="44" height="44" fill="white"/>
</clipPath>
</defs>
</svg>
