<svg width="44" height="44" viewBox="0 0 44 44" fill="none" xmlns="http://www.w3.org/2000/svg">
<g clip-path="url(#clip0_1_587)">
<path d="M22 44C34.1503 44 44 34.1503 44 22C44 9.84974 34.1503 0 22 0C9.84974 0 0 9.84974 0 22C0 34.1503 9.84974 44 22 44Z" fill="black"/>
<path d="M24.1214 24.1214C22.3929 25.905 22.2671 28.1286 22.1179 33C26.6593 33 29.7943 32.9843 31.4129 31.4129C32.9843 29.7943 33 26.51 33 22.1179C28.1286 22.275 25.905 22.3929 24.1214 24.1214ZM11 22.1179C11 26.51 11.0157 29.7943 12.5871 31.4129C14.2057 32.9843 17.3407 33 21.8821 33C21.725 28.1286 21.6071 25.905 19.8786 24.1214C18.095 22.3929 15.8714 22.2671 11 22.1179ZM21.8821 11C17.3486 11 14.2057 11.0157 12.5871 12.5871C11.0157 14.2057 11 17.49 11 21.8821C15.8714 21.725 18.095 21.6071 19.8786 19.8786C21.6071 18.095 21.7329 15.8714 21.8821 11ZM24.1214 19.8786C22.3929 18.095 22.2671 15.8714 22.1179 11C26.6593 11 29.7943 11.0157 31.4129 12.5871C32.9843 14.2057 33 17.49 33 21.8821C28.1286 21.725 25.905 21.6071 24.1214 19.8786Z" fill="white"/>
</g>
<defs>
<clipPath id="clip0_1_587">
<rect width="44" height="44" fill="white"/>
</clipPath>
</defs>
</svg>
