<svg width="44" height="44" viewBox="0 0 44 44" fill="none" xmlns="http://www.w3.org/2000/svg">
<g clip-path="url(#clip0_1_577)">
<path d="M22 44C34.1503 44 44 34.1503 44 22C44 9.84974 34.1503 0 22 0C9.84974 0 0 9.84974 0 22C0 34.1503 9.84974 44 22 44Z" fill="#FF0000"/>
<path d="M31.8768 16.8448C31.6391 15.9613 30.9425 15.2647 30.059 15.0268C28.445 14.5852 21.989 14.5852 21.989 14.5852C21.989 14.5852 15.5332 14.5852 13.9193 15.0101C13.0528 15.2477 12.3392 15.9614 12.1015 16.8448C11.6768 18.4587 11.6768 21.8056 11.6768 21.8056C11.6768 21.8056 11.6768 25.1694 12.1015 26.7663C12.3394 27.6498 13.0358 28.3463 13.9194 28.5842C15.5502 29.026 21.9893 29.026 21.9893 29.026C21.9893 29.026 28.445 29.026 30.059 28.6011C30.9426 28.3633 31.6391 27.6668 31.877 26.7833C32.3016 25.1694 32.3016 21.8226 32.3016 21.8226C32.3016 21.8226 32.3186 18.4587 31.8768 16.8448ZM19.9336 24.8976V18.7136L25.302 21.8056L19.9336 24.8976Z" fill="white"/>
</g>
<defs>
<clipPath id="clip0_1_577">
<rect width="44" height="44" fill="white"/>
</clipPath>
</defs>
</svg>
