<svg width="558" height="650" viewBox="0 0 558 650" fill="none" xmlns="http://www.w3.org/2000/svg">
<g opacity="0.6" filter="url(#filter0_f_1_324)">
<path d="M80 364.5L237.5 80.5L478 215L306 570L80 364.5Z" fill="url(#paint0_linear_1_324)"/>
</g>
<path d="M448.516 55.8442H267.483C258.08 55.8442 249.64 59.966 243.871 66.5021L240.819 87.3283V201.482C240.819 218.87 250.096 232.965 267.483 232.965H310.101C313.232 232.965 316.235 238.12 318.449 240.334L355.48 277.365L363.449 278.446C363.909 278.124 364.34 277.763 364.737 277.365L401.768 240.334C403.982 238.12 406.985 236.877 410.117 236.877H448.517C465.905 236.877 480 222.781 480 205.393V87.3283C480 69.94 465.904 55.8442 448.516 55.8442Z" fill="#D6EA01"/>
<path d="M314.232 240.334L351.263 277.365C354.579 280.682 359.733 281.041 363.449 278.446L319.798 234.769C316.135 231.107 311.066 229.006 305.885 229.006H267.484C254.463 229.006 243.871 218.414 243.871 205.393V66.502C238.987 72.0487 236 79.3563 236 87.3282V205.393C236 222.781 250.096 236.877 267.484 236.877H305.884C307.434 236.877 308.97 237.182 310.402 237.775C311.834 238.368 313.136 239.238 314.232 240.334Z" fill="#B4C413"/>
<g opacity="0.2" filter="url(#filter1_f_1_324)">
<path d="M414.76 147.946C412.848 132.948 398.441 121.046 381.329 120.068C370.964 119.477 361.488 122.761 354.529 128.414C353.811 129.001 352.867 129.327 351.887 129.327C350.908 129.327 349.964 129.001 349.246 128.414C342.286 122.761 332.811 119.477 322.446 120.068C318.382 120.303 314.394 121.152 310.657 122.579C299.103 126.976 291.238 147.946 291.238 147.946C287.185 179.74 336.012 205.406 350.528 213L360.561 212.66C378.654 202.576 418.452 176.907 414.76 147.946Z" fill="black"/>
</g>
<path d="M420.728 130.805C418.821 113.803 404.447 100.31 387.375 99.2016C377.033 98.5306 367.579 102.254 360.636 108.663C359.919 109.328 358.978 109.697 358 109.697C357.023 109.697 356.081 109.328 355.364 108.663C348.421 102.254 338.968 98.5306 328.626 99.2016C324.571 99.4678 320.593 100.43 316.865 102.047C305.337 107.033 297.49 130.805 297.49 130.805C293.446 166.848 342.161 195.944 356.644 204.553L366.654 204.168C384.705 192.737 424.412 163.637 420.728 130.805Z" fill="white"/>
<path d="M303.784 125.629C304.844 116.184 309.786 107.804 316.864 102.047C305.354 107.039 296.717 117.922 295.271 130.805C291.228 166.848 339.476 198.395 353.959 207.004C355.181 207.733 356.577 208.118 358 208.118C359.422 208.118 360.819 207.733 362.04 207.004C363.591 206.08 365.129 205.135 366.653 204.169C357.42 198.965 299.408 164.632 303.784 125.629Z" fill="#E9F46E"/>
<defs>
<filter id="filter0_f_1_324" x="0" y="0.5" width="558" height="649.5" filterUnits="userSpaceOnUse" color-interpolation-filters="sRGB">
<feFlood flood-opacity="0" result="BackgroundImageFix"/>
<feBlend mode="normal" in="SourceGraphic" in2="BackgroundImageFix" result="shape"/>
<feGaussianBlur stdDeviation="40" result="effect1_foregroundBlur_1_324"/>
</filter>
<filter id="filter1_f_1_324" x="271" y="100" width="164" height="133" filterUnits="userSpaceOnUse" color-interpolation-filters="sRGB">
<feFlood flood-opacity="0" result="BackgroundImageFix"/>
<feBlend mode="normal" in="SourceGraphic" in2="BackgroundImageFix" result="shape"/>
<feGaussianBlur stdDeviation="10" result="effect1_foregroundBlur_1_324"/>
</filter>
<linearGradient id="paint0_linear_1_324" x1="297" y1="144.5" x2="211" y2="349" gradientUnits="userSpaceOnUse">
<stop/>
<stop offset="1" stop-opacity="0"/>
</linearGradient>
</defs>
</svg>
