<svg width="119" height="119" viewBox="0 0 119 119" fill="none" xmlns="http://www.w3.org/2000/svg">
<g clip-path="url(#clip0_1_428)">
<path d="M100.305 51.2004L76.4392 42.3726L72.7663 17.1925C72.5091 15.4294 70.2679 14.8288 69.1638 16.2272L53.3929 36.1972L28.3104 31.9094C26.554 31.6091 25.2904 33.5551 26.2789 35.0374L40.3982 56.2073L28.5692 78.7373C27.7409 80.3149 29.2013 82.118 30.9164 81.6359L55.4134 74.7496L73.1852 92.9618C74.4296 94.2371 76.5956 93.4055 76.6672 91.6251L77.6878 66.199L100.501 54.925C102.098 54.1356 101.976 51.8184 100.305 51.2004Z" fill="#FFDC64"/>
<path d="M46.1536 9.22865C46.937 11.296 48.4644 19.6821 49.3155 24.559C49.4494 25.3256 48.4288 25.7124 48.021 25.0494C45.4267 20.8332 41.0132 13.5406 40.2299 11.4731C39.61 9.83736 40.4336 8.00881 42.0695 7.389C43.7053 6.76914 45.5338 7.59291 46.1536 9.22865ZM96.1932 22.6367C94.4812 24.0354 88.9654 30.5343 85.7898 34.3322C85.2906 34.9293 85.981 35.7745 86.6657 35.4042C91.0205 33.0501 98.4889 28.941 100.201 27.5424C101.556 26.4357 101.757 24.4403 100.65 23.0856C99.5434 21.7309 97.5479 21.5301 96.1932 22.6367ZM102.292 78.7392C100.439 77.5331 92.5717 74.2526 87.9887 72.3813C87.2683 72.0871 86.6729 73.0018 87.2334 73.5415C90.7995 76.9752 96.9833 82.842 98.8361 84.0481C100.302 85.0024 102.264 84.5877 103.219 83.1215C104.173 81.6554 103.758 79.6935 102.292 78.7392ZM12.8206 54.7653C15.0282 54.6472 23.482 55.7401 28.3867 56.411C29.1577 56.5164 29.216 57.6062 28.4607 57.7934C23.6555 58.984 15.3668 60.9729 13.1592 61.091C11.4124 61.1845 9.9206 59.8443 9.82715 58.0974C9.7337 56.3505 11.0739 54.8588 12.8206 54.7653ZM45.3389 100.486C45.9111 98.3504 49.5714 90.6521 51.7301 86.1971C52.0693 85.4968 53.1236 85.7793 53.0673 86.5554C52.7092 91.4929 52.03 99.9899 51.4578 102.125C51.0051 103.815 49.2683 104.818 47.5787 104.365C45.8889 103.912 44.8862 102.175 45.3389 100.486Z" fill="#FFF082"/>
<path d="M74.1018 26.349L72.7661 17.1925C72.5089 15.4293 70.2677 14.8288 69.1636 16.2272L53.3927 36.1971L28.3104 31.9094C26.554 31.6091 25.2904 33.5551 26.2789 35.0374L40.3982 56.2073L28.5692 78.7373C27.7409 80.3149 29.2013 82.118 30.9164 81.6359L34.1768 80.7194C46.7866 52.1044 65.6219 33.6656 74.1018 26.349Z" fill="#FFC850"/>
</g>
<defs>
<clipPath id="clip0_1_428">
<rect width="97" height="97" fill="white" transform="translate(25.2051 0.100098) rotate(15)"/>
</clipPath>
</defs>
</svg>
