<svg width="116" height="116" viewBox="0 0 116 116" fill="none" xmlns="http://www.w3.org/2000/svg">
<circle cx="58.0005" cy="58" r="58" fill="white"/>
<g clip-path="url(#clip0_1_206)">
<path d="M108 58C108 85.6146 85.6151 108 58.0005 108C30.3858 108 8.00049 85.6146 8.00049 58C8.00049 30.3854 30.3858 8 58.0005 8C85.6151 8 108 30.3854 108 58Z" fill="#9657EB"/>
<path d="M108 58C108 56.8646 107.958 55.7387 107.884 54.6217L84.2411 30.9781L31.8979 83.5973L56.2681 107.967C56.8433 107.987 57.4208 108 58.0007 108C85.6153 108 108.001 85.6148 108.001 58.0002L108 58Z" fill="#793FC7"/>
<path d="M31.8979 83.5975L58.4147 77.7967L84.2409 30.9783L37.4226 56.8045L31.8979 83.5975Z" fill="#CDD2E1"/>
<path d="M31.8979 83.5975L58.4147 77.7967L84.2409 30.9783L31.8979 83.5975Z" fill="#BEC3D2"/>
<path d="M84.2412 30.9781L24.4404 48.7945L42.2566 66.6098L84.2412 30.9781Z" fill="white"/>
<path d="M84.241 30.9781L66.4246 90.7789L48.6094 72.9627L84.241 30.9781Z" fill="#E9EDF5"/>
<path d="M31.8979 83.5975L42.2565 66.6098L84.2409 30.9781L48.6097 72.9629L31.8979 83.5975Z" fill="#AFB4C8"/>
<path d="M31.8979 83.5975L48.6095 72.9627L84.2411 30.9783L31.8979 83.5975Z" fill="#9196AA"/>
</g>
<defs>
<clipPath id="clip0_1_206">
<rect width="100" height="100" fill="white" transform="translate(8.00049 8)"/>
</clipPath>
</defs>
</svg>
