<svg width="116" height="116" viewBox="0 0 116 116" fill="none" xmlns="http://www.w3.org/2000/svg">
<circle cx="58.0002" cy="58" r="58" fill="white"/>
<circle cx="58.0002" cy="58" r="50" fill="#645CFF"/>
<mask id="mask0_1_221" style="mask-type:alpha" maskUnits="userSpaceOnUse" x="8" y="8" width="101" height="100">
<circle cx="58.0002" cy="58" r="50" fill="#645CFF"/>
</mask>
<g mask="url(#mask0_1_221)">
<path d="M110 68L81.0002 44L31.5002 81L65.0002 113.5L110 91.5V68Z" fill="#4640C0"/>
</g>
<path d="M73.7781 32.9794C73.3166 32.586 72.7752 32.2976 72.1912 32.1342C71.6073 31.9708 70.9948 31.9363 70.3962 32.033L35.6428 37.6385C33.8391 37.923 32.1968 38.8435 31.0129 40.2337C29.8289 41.6238 29.1815 43.3918 29.1878 45.2177V48.7291C29.1878 49.0993 29.3349 49.4543 29.5966 49.7161C29.8584 49.9779 30.2135 50.125 30.5837 50.125H73.8544C74.2246 50.125 74.5797 49.9779 74.8414 49.7161C75.1032 49.4543 75.2503 49.0993 75.2503 48.7291V36.1674C75.2508 35.561 75.1194 34.9618 74.8652 34.4113C74.611 33.8608 74.24 33.3722 73.7781 32.9794Z" fill="url(#paint0_linear_1_221)"/>
<path d="M73.7781 32.9794C73.3166 32.586 72.7752 32.2976 72.1912 32.1342C71.6073 31.9708 70.9948 31.9363 70.3962 32.033L35.6428 37.6385C33.8391 37.923 32.1968 38.8435 31.0129 40.2337C29.8289 41.6238 29.1815 43.3918 29.1878 45.2177V48.7291C29.1878 49.0993 29.3349 49.4543 29.5966 49.7161C29.8584 49.9779 30.2135 50.125 30.5837 50.125H73.8544C74.2246 50.125 74.5797 49.9779 74.8414 49.7161C75.1032 49.4543 75.2503 49.0993 75.2503 48.7291V36.1674C75.2508 35.561 75.1194 34.9618 74.8652 34.4113C74.611 33.8608 74.24 33.3722 73.7781 32.9794Z" fill="url(#paint1_linear_1_221)"/>
<path d="M78.0419 43.1458H33.3752C32.265 43.1471 31.2006 43.5886 30.4156 44.3737C29.6305 45.1587 29.189 46.2231 29.1877 47.3333V78.0416C29.19 79.8919 29.9261 81.6657 31.2344 82.9741C32.5427 84.2825 34.3166 85.0185 36.1669 85.0208H78.0419C79.8922 85.0186 81.6661 84.2825 82.9744 82.9741C84.2828 81.6658 85.0188 79.8919 85.0211 78.0416V50.125C85.019 48.2746 84.283 46.5007 82.9746 45.1923C81.6662 43.8839 79.8922 43.1479 78.0419 43.1458Z" fill="url(#paint2_linear_1_221)"/>
<path d="M85.0212 54.3125H66.8753C65.0295 54.3205 63.2621 55.0593 61.9598 56.3673C60.6574 57.6753 59.9263 59.4459 59.9263 61.2917C59.9263 63.1374 60.6574 64.9081 61.9598 66.216C63.2621 67.524 65.0295 68.2629 66.8753 68.2708H85.0212C85.7613 68.27 86.4709 67.9756 86.9943 67.4522C87.5176 66.9289 87.812 66.2192 87.8128 65.4791V57.1041C87.812 56.364 87.5176 55.6544 86.9943 55.131C86.4709 54.6076 85.7613 54.3133 85.0212 54.3125Z" fill="url(#paint3_linear_1_221)"/>
<path d="M66.8754 64.0832C68.4171 64.0832 69.667 62.8334 69.667 61.2916C69.667 59.7498 68.4171 58.5 66.8754 58.5C65.3336 58.5 64.0837 59.7498 64.0837 61.2916C64.0837 62.8334 65.3336 64.0832 66.8754 64.0832Z" fill="url(#paint4_linear_1_221)"/>
<defs>
<linearGradient id="paint0_linear_1_221" x1="32.1041" y1="41.0524" x2="74.6944" y2="41.0524" gradientUnits="userSpaceOnUse">
<stop stop-color="#37AA79"/>
<stop offset="1" stop-color="#398A70"/>
</linearGradient>
<linearGradient id="paint1_linear_1_221" x1="32.8429" y1="41.0522" x2="75.7946" y2="41.0522" gradientUnits="userSpaceOnUse">
<stop stop-color="#D6EA01"/>
<stop offset="1" stop-color="#98A41D"/>
</linearGradient>
<linearGradient id="paint2_linear_1_221" x1="33.6182" y1="64.0833" x2="85.6809" y2="64.0833" gradientUnits="userSpaceOnUse">
<stop stop-color="#D6EA01"/>
<stop offset="1" stop-color="#98A41D"/>
</linearGradient>
<linearGradient id="paint3_linear_1_221" x1="62.1364" y1="61.2916" x2="88.1417" y2="61.2916" gradientUnits="userSpaceOnUse">
<stop stop-color="#FED200"/>
<stop offset="1" stop-color="#F59815"/>
</linearGradient>
<linearGradient id="paint4_linear_1_221" x1="64.0152" y1="61.2916" x2="69.5139" y2="61.2916" gradientUnits="userSpaceOnUse">
<stop stop-color="white"/>
<stop offset="1" stop-color="#F2EBE6"/>
</linearGradient>
</defs>
</svg>
