<svg width="116" height="116" viewBox="0 0 116 116" fill="none" xmlns="http://www.w3.org/2000/svg">
<circle cx="58.0002" cy="58" r="58" fill="white"/>
<circle cx="58.0002" cy="58" r="50" fill="#645CFF"/>
<mask id="mask0_1_236" style="mask-type:alpha" maskUnits="userSpaceOnUse" x="8" y="8" width="101" height="100">
<circle cx="58.0002" cy="58" r="50" fill="#9657EB"/>
</mask>
<g mask="url(#mask0_1_236)">
<path d="M110 56L80.0002 26L38.5002 91.5L63.0002 116L110 91.5V56Z" fill="#524CCE"/>
</g>
<g clip-path="url(#clip0_1_236)">
<path d="M43.6686 66.0235H37.3274V42.4706C37.3274 38.9684 40.1664 36.1294 43.6686 36.1294V66.0235Z" fill="url(#paint0_linear_1_236)"/>
<path d="M83.0973 86.292V29.708C83.0973 27.1079 80.9894 25 78.3893 25H45.1352C42.5351 25 40.4272 27.1079 40.4272 29.708V86.292C40.4272 88.8921 42.5351 91 45.1352 91H78.3893C80.9894 91 83.0973 88.8921 83.0973 86.292Z" fill="url(#paint1_linear_1_236)"/>
<path d="M79.8557 85.5537V30.4463C79.8557 29.2782 78.9088 28.3313 77.7408 28.3313H45.7834C44.6154 28.3313 43.6685 29.2782 43.6685 30.4463V85.5537C43.6685 86.7218 44.6154 87.6687 45.7834 87.6687H77.7408C78.9088 87.6687 79.8557 86.7218 79.8557 85.5537Z" fill="url(#paint2_linear_1_236)"/>
<path d="M40.4272 74.1765V86.292C40.4272 88.8922 42.5351 91 45.1352 91H78.3893C80.9894 91 83.0973 88.8922 83.0973 86.292V74.1765H40.4272Z" fill="url(#paint3_linear_1_236)"/>
<path d="M45.1352 91H78.3893C79.7617 91 80.9967 90.4123 81.8573 89.4753L48.7602 56.3784L40.4272 64.7114V86.2919C40.4272 88.8921 42.5351 91 45.1352 91Z" fill="url(#paint4_linear_1_236)"/>
<path d="M77.4612 83.0018V32.9981C77.4612 31.9518 76.6129 31.1035 75.5667 31.1035H47.9578C46.9115 31.1035 46.0632 31.9518 46.0632 32.9981V83.0018C46.0632 84.0481 46.9115 84.8964 47.9578 84.8964H75.5667C76.6129 84.8964 77.4612 84.0481 77.4612 83.0018Z" fill="url(#paint5_linear_1_236)"/>
<path d="M47.9577 84.8964H75.5665C76.043 84.8964 76.4773 84.7191 76.8103 84.4287L48.7601 56.3784L46.063 59.0755V83.0018C46.0631 84.0481 46.9113 84.8964 47.9577 84.8964Z" fill="url(#paint6_linear_1_236)"/>
<path d="M77.4613 48.1723L66.1184 36.8294C65.1372 35.7182 63.7154 34.9762 62.0233 34.942C61.9356 34.9402 61.8478 34.9402 61.7601 34.942C57.2863 35.0328 54.6987 40.0686 57.1635 43.8031L61.2866 50.0502C61.3713 50.1798 61.4957 50.2784 61.6411 50.3314L77.4613 66.1516V48.1723Z" fill="url(#paint7_linear_1_236)"/>
<path d="M54.191 77.4359H49.3045C49.239 77.4359 49.1762 77.4099 49.1299 77.3636C49.0836 77.3173 49.0576 77.2545 49.0576 77.189V75.7415C49.0576 75.6051 49.1681 75.4946 49.3045 75.4946H54.191C54.3274 75.4946 54.4379 75.6051 54.4379 75.7415V77.189C54.4379 77.2545 54.4119 77.3173 54.3656 77.3636C54.3193 77.4099 54.2565 77.4359 54.191 77.4359ZM60.4028 81.1889H49.3045C49.239 81.1889 49.1762 81.1629 49.1299 81.1166C49.0836 81.0703 49.0576 81.0074 49.0576 80.942V79.4945C49.0576 79.3581 49.1681 79.2476 49.3045 79.2476H60.4028C60.5392 79.2476 60.6497 79.3581 60.6497 79.4945V80.942C60.6496 81.0074 60.6236 81.0702 60.5773 81.1165C60.531 81.1628 60.4682 81.1888 60.4028 81.1889Z" fill="#A2AEE6"/>
<path d="M77.4613 83.0019V55.9367L74.5688 53.0442C74.468 52.6244 74.0911 52.312 73.6404 52.312H50.143C49.8895 52.312 49.6464 52.4127 49.4672 52.5919C49.2879 52.7712 49.1873 53.0142 49.1873 53.2677V72.8384C49.1873 73.2891 49.4997 73.666 49.9195 73.7668L61.049 84.8963H75.5667C76.613 84.8965 77.4613 84.0482 77.4613 83.0019Z" fill="url(#paint8_linear_1_236)"/>
<path d="M73.5107 73.6648H50.0133C49.7599 73.6648 49.5168 73.5642 49.3375 73.3849C49.1583 73.2057 49.0576 72.9626 49.0576 72.7091V53.1383C49.0576 52.8849 49.1583 52.6418 49.3375 52.4625C49.5168 52.2833 49.7599 52.1826 50.0133 52.1826H73.5107C73.7642 52.1826 74.0073 52.2833 74.1865 52.4625C74.3658 52.6418 74.4665 52.8849 74.4665 53.1383V72.709C74.4665 72.8345 74.4418 72.9588 74.3937 73.0748C74.3457 73.1907 74.2753 73.2961 74.1866 73.3849C74.0978 73.4736 73.9925 73.544 73.8765 73.5921C73.7605 73.6401 73.6363 73.6648 73.5107 73.6648Z" fill="url(#paint9_linear_1_236)"/>
<path d="M50.0135 73.6649H66.0465L49.0576 56.676V72.7091C49.0576 72.9626 49.1583 73.2057 49.3376 73.385C49.5168 73.5642 49.7599 73.6649 50.0135 73.6649Z" fill="url(#paint10_linear_1_236)"/>
<path d="M74.4667 53.1382V72.7091C74.4667 72.9626 74.366 73.2056 74.1868 73.3848C74.0076 73.564 73.7645 73.6647 73.5111 73.6647H70.3923L54.999 58.2713V52.1826H73.5112C73.7646 52.1827 74.0077 52.2834 74.1868 52.4626C74.366 52.6418 74.4667 52.8848 74.4667 53.1382Z" fill="url(#paint11_linear_1_236)"/>
<path d="M73.5111 52.1826H66.835C67.0884 52.1826 67.3315 52.2833 67.5107 52.4625C67.69 52.6418 67.7907 52.8849 67.7907 53.1383V72.709C67.7907 72.9625 67.69 73.2056 67.5107 73.3848C67.3315 73.564 67.0884 73.6647 66.835 73.6647H73.5111C73.7645 73.6647 74.0076 73.564 74.1868 73.3848C74.3661 73.2056 74.4668 72.9625 74.4668 72.709V53.1385C74.4668 53.0129 74.4421 52.8886 74.394 52.7727C74.346 52.6567 74.2756 52.5513 74.1869 52.4626C74.0981 52.3738 73.9928 52.3034 73.8768 52.2554C73.7609 52.2073 73.6366 52.1826 73.5111 52.1826Z" fill="url(#paint12_linear_1_236)"/>
<path d="M49.0576 68.4834V72.7091C49.0576 72.9626 49.1583 73.2056 49.3375 73.3849C49.5168 73.5641 49.7599 73.6648 50.0133 73.6648H73.5107C73.7642 73.6648 74.0073 73.5641 74.1865 73.3849C74.3658 73.2056 74.4665 72.9626 74.4665 72.7091V68.4834H49.0576Z" fill="url(#paint13_linear_1_236)"/>
<path d="M55.9797 58.4351L55.9985 58.4465C56.2091 58.5744 56.4512 58.6411 56.6977 58.6391C56.9441 58.6371 57.1851 58.5665 57.3936 58.4351C57.6068 58.3064 57.8512 58.2383 58.1004 58.2383C58.3495 58.2383 58.5939 58.3064 58.8071 58.4351C59.0204 58.5639 59.2648 58.632 59.5139 58.632C59.763 58.632 60.0074 58.5639 60.2207 58.4351C60.4222 58.3185 60.645 58.3159 60.8696 58.3581C61.1257 58.4061 61.3634 58.2142 61.3634 57.9537V52.377C61.3634 52.3328 61.3547 52.2891 61.3378 52.2483C61.3209 52.2075 61.2962 52.1705 61.2649 52.1392C61.2337 52.108 61.1967 52.0833 61.1559 52.0664C61.1151 52.0495 61.0713 52.0408 61.0272 52.0408H55.1731C55.129 52.0408 55.0853 52.0495 55.0445 52.0664C55.0037 52.0833 54.9666 52.108 54.9354 52.1392C54.9042 52.1705 54.8794 52.2075 54.8625 52.2483C54.8456 52.2891 54.8369 52.3328 54.8369 52.377V57.9458C54.8369 58.2048 55.0724 58.3986 55.3269 58.3509C55.5536 58.3084 55.7785 58.313 55.9797 58.4351Z" fill="url(#paint14_linear_1_236)"/>
<path d="M61.8939 34.8126C61.8062 34.8108 61.7184 34.8108 61.6307 34.8126C57.1569 34.9034 54.5693 39.9392 57.0341 43.6737L61.1572 49.9208C61.4437 50.355 62.0808 50.355 62.3673 49.9208L66.4904 43.6737C68.9553 39.939 66.3677 34.9032 61.8939 34.8126ZM61.7622 42.9209C60.4316 42.9209 59.3529 41.8423 59.3529 40.5117C59.3529 39.1811 60.4316 38.1024 61.7622 38.1024C63.0928 38.1024 64.1714 39.1811 64.1714 40.5117C64.1714 41.8423 63.0928 42.9209 61.7622 42.9209Z" fill="url(#paint15_linear_1_236)"/>
<path d="M43.7817 71.4666L46.105 73.7899C47.9956 75.6806 49.0578 78.2448 49.0578 80.9186C49.0578 86.4864 44.5442 91 38.9764 91H36.2836C34.4167 91 32.9033 89.4867 32.9033 87.6198V71.706C32.9032 70.2053 33.1987 68.7194 33.7729 67.3329C34.3472 65.9465 35.1888 64.6867 36.2499 63.6255L43.4983 56.3785C44.2243 55.6525 45.1767 55.2888 46.1292 55.2888C47.0817 55.2888 48.0341 55.6525 48.7601 56.3785C51.5516 59.1699 51.5516 63.6967 48.7601 66.4881L43.7817 71.4666Z" fill="url(#paint16_linear_1_236)"/>
<path d="M49.0578 80.9185C49.0578 78.2448 47.9956 75.6805 46.105 73.7899L43.7817 71.4666L32.9033 82.3449V87.6197C32.9033 89.4866 34.4167 91 36.2836 91H38.9764C44.5442 91 49.0578 86.4863 49.0578 80.9185Z" fill="url(#paint17_linear_1_236)"/>
</g>
<defs>
<linearGradient id="paint0_linear_1_236" x1="37.3274" y1="36.1294" x2="43.6686" y2="36.1294" gradientUnits="userSpaceOnUse">
<stop stop-color="#FFDCBD"/>
<stop offset="1" stop-color="#FFA9B1"/>
</linearGradient>
<linearGradient id="paint1_linear_1_236" x1="40.4272" y1="25" x2="83.0973" y2="25" gradientUnits="userSpaceOnUse">
<stop stop-color="#537983"/>
<stop offset="1" stop-color="#3E5959"/>
</linearGradient>
<linearGradient id="paint2_linear_1_236" x1="43.6685" y1="28.3313" x2="79.8557" y2="28.3313" gradientUnits="userSpaceOnUse">
<stop stop-color="#537983"/>
<stop offset="1" stop-color="#3E5959"/>
</linearGradient>
<linearGradient id="paint3_linear_1_236" x1="40.4272" y1="74.1765" x2="83.0973" y2="74.1765" gradientUnits="userSpaceOnUse">
<stop stop-color="#384949" stop-opacity="0"/>
<stop offset="1" stop-color="#384949"/>
</linearGradient>
<linearGradient id="paint4_linear_1_236" x1="40.4272" y1="56.3784" x2="81.8573" y2="56.3784" gradientUnits="userSpaceOnUse">
<stop stop-color="#384949" stop-opacity="0"/>
<stop offset="1" stop-color="#384949"/>
</linearGradient>
<linearGradient id="paint5_linear_1_236" x1="46.0632" y1="31.1035" x2="77.4612" y2="31.1035" gradientUnits="userSpaceOnUse">
<stop stop-color="#EAF6FF"/>
<stop offset="0.258" stop-color="#DCE8FA"/>
<stop offset="0.742" stop-color="#B8C4ED"/>
<stop offset="1" stop-color="#A2AEE6"/>
</linearGradient>
<linearGradient id="paint6_linear_1_236" x1="46.063" y1="56.3784" x2="76.8103" y2="56.3784" gradientUnits="userSpaceOnUse">
<stop stop-color="#8795DE" stop-opacity="0"/>
<stop offset="0.468" stop-color="#7D8DDC" stop-opacity="0.468"/>
<stop offset="1" stop-color="#6C7FD8"/>
</linearGradient>
<linearGradient id="paint7_linear_1_236" x1="56.2095" y1="34.9407" x2="77.4613" y2="34.9407" gradientUnits="userSpaceOnUse">
<stop stop-color="#8795DE" stop-opacity="0"/>
<stop offset="0.468" stop-color="#7D8DDC" stop-opacity="0.468"/>
<stop offset="1" stop-color="#6C7FD8"/>
</linearGradient>
<linearGradient id="paint8_linear_1_236" x1="49.1873" y1="52.312" x2="77.4613" y2="52.312" gradientUnits="userSpaceOnUse">
<stop stop-color="#8795DE" stop-opacity="0"/>
<stop offset="0.468" stop-color="#7D8DDC" stop-opacity="0.468"/>
<stop offset="1" stop-color="#6C7FD8"/>
</linearGradient>
<linearGradient id="paint9_linear_1_236" x1="53.3257" y1="54.4873" x2="73.6117" y2="74.7733" gradientUnits="userSpaceOnUse">
<stop stop-color="#FEE45A"/>
<stop offset="1" stop-color="#FE860A"/>
</linearGradient>
<linearGradient id="paint10_linear_1_236" x1="49.0576" y1="56.676" x2="66.0465" y2="56.676" gradientUnits="userSpaceOnUse">
<stop stop-color="#FE860A" stop-opacity="0"/>
<stop offset="1" stop-color="#FE7701"/>
</linearGradient>
<linearGradient id="paint11_linear_1_236" x1="54.999" y1="52.1826" x2="74.4667" y2="52.1826" gradientUnits="userSpaceOnUse">
<stop stop-color="#FE860A" stop-opacity="0"/>
<stop offset="1" stop-color="#FE7701"/>
</linearGradient>
<linearGradient id="paint12_linear_1_236" x1="66.835" y1="52.1826" x2="74.4668" y2="52.1826" gradientUnits="userSpaceOnUse">
<stop stop-color="#FE860A" stop-opacity="0"/>
<stop offset="1" stop-color="#FE7701"/>
</linearGradient>
<linearGradient id="paint13_linear_1_236" x1="49.0576" y1="68.4834" x2="74.4665" y2="68.4834" gradientUnits="userSpaceOnUse">
<stop stop-color="#FE860A" stop-opacity="0"/>
<stop offset="1" stop-color="#FE7701"/>
</linearGradient>
<linearGradient id="paint14_linear_1_236" x1="54.8369" y1="52.0408" x2="61.3634" y2="52.0408" gradientUnits="userSpaceOnUse">
<stop stop-color="#EAF6FF"/>
<stop offset="0.258" stop-color="#DCE8FA"/>
<stop offset="0.742" stop-color="#B8C4ED"/>
<stop offset="1" stop-color="#A2AEE6"/>
</linearGradient>
<linearGradient id="paint15_linear_1_236" x1="60.9814" y1="40.7215" x2="67.3239" y2="47.0639" gradientUnits="userSpaceOnUse">
<stop stop-color="#FD4755"/>
<stop offset="0.191" stop-color="#F64452"/>
<stop offset="0.474" stop-color="#E23C4B"/>
<stop offset="0.811" stop-color="#C22E40"/>
<stop offset="1" stop-color="#AC2538"/>
</linearGradient>
<linearGradient id="paint16_linear_1_236" x1="32.9033" y1="55.2888" x2="50.8537" y2="55.2888" gradientUnits="userSpaceOnUse">
<stop stop-color="#FFDCBD"/>
<stop offset="1" stop-color="#FFA9B1"/>
</linearGradient>
<linearGradient id="paint17_linear_1_236" x1="41.5914" y1="78.1637" x2="43.1443" y2="68.3284" gradientUnits="userSpaceOnUse">
<stop stop-color="#FFA9B1" stop-opacity="0"/>
<stop offset="0.997" stop-color="#FFA78F"/>
</linearGradient>
<clipPath id="clip0_1_236">
<rect width="66" height="66" fill="white" transform="translate(25.0002 25)"/>
</clipPath>
</defs>
</svg>
