<svg width="116" height="116" viewBox="0 0 116 116" fill="none" xmlns="http://www.w3.org/2000/svg">
<circle cx="58.0002" cy="58" r="58" fill="#FAFAFA"/>
<circle cx="58.0002" cy="58" r="50" fill="#E8E8E8"/>
<mask id="mask0_1_268" style="mask-type:alpha" maskUnits="userSpaceOnUse" x="8" y="8" width="101" height="100">
<circle cx="58.0002" cy="58" r="50" fill="#9657EB"/>
</mask>
<g mask="url(#mask0_1_268)">
<path d="M110 62.5L88.5002 46L31.0002 76L67.0002 111L110 91.5V62.5Z" fill="#C8C8C8"/>
</g>
<g clip-path="url(#clip0_1_268)">
<path d="M86.2551 46.242H72.6272V70.9418H94.9554V59.8244L92.3513 50.8245C91.5663 48.1104 89.0804 46.242 86.2551 46.242Z" fill="#9657EB"/>
<path d="M91.6953 59.7104L89.3745 51.6879C88.9744 50.3089 87.6917 49.3437 86.2549 49.3437H75.7288V59.7104H91.6953Z" fill="#84DBFF"/>
<path d="M91.6982 59.7063H75.7234V49.3396L91.6982 59.7063Z" fill="#CDD6E0"/>
<path d="M91.6953 59.7104L89.3745 51.6879C88.9744 50.3089 87.6917 49.3437 86.2549 49.3437H75.7288L91.6953 59.7104Z" fill="#F2F2F2"/>
<path d="M34.1249 33.8418H68.5025C70.7793 33.8418 72.6271 35.6883 72.6271 37.9665V70.9404H30.0002V37.9665C30.0002 35.6884 31.8467 33.8418 34.1249 33.8418Z" fill="#FFD15C"/>
<path d="M57.938 33.8488V44.7474L56.3431 43.1526L54.6713 44.8245L53.0008 43.1526L51.3303 44.8245L49.657 43.1526L47.9646 44.8245L46.2954 43.1526L44.6814 44.7668V33.8488H57.938Z" fill="white"/>
<path d="M96.0003 70.939V75.5998H30.0059V70.939H36.894C38.5026 68.0517 41.5961 66.0993 45.1433 66.0993C48.6767 66.0993 51.7702 68.0517 53.3926 70.939H75.5558C77.1644 68.0517 80.2428 66.0993 83.79 66.0993C87.3372 66.0993 90.417 68.0517 92.0394 70.939H96.0003Z" fill="#334A5E"/>
<path d="M90.377 75.571C90.377 79.2089 87.4279 82.158 83.7899 82.158C80.152 82.158 77.2056 79.2089 77.2056 75.571C77.2056 71.933 80.1533 68.9839 83.7899 68.9839C87.4293 68.9839 90.377 71.933 90.377 75.571Z" fill="#40596B"/>
<path d="M86.4379 75.571C86.4379 77.0325 85.2527 78.2163 83.7926 78.2163C82.331 78.2163 81.1445 77.0325 81.1445 75.571C81.1445 74.1094 82.3297 72.9256 83.7926 72.9256C85.2527 72.9244 86.4379 74.1095 86.4379 75.571Z" fill="#ACB3BA"/>
<path d="M51.7247 75.571C51.7247 79.2089 48.7741 82.158 45.1376 82.158C41.4997 82.158 38.5505 79.2089 38.5505 75.571C38.5505 71.933 41.4997 68.9839 45.1376 68.9839C48.7741 68.9839 51.7247 71.933 51.7247 75.571Z" fill="#40596B"/>
<path d="M47.7831 75.571C47.7831 77.0325 46.5994 78.2163 45.1378 78.2163C43.6763 78.2163 42.4912 77.0325 42.4912 75.571C42.4912 74.1094 43.6764 72.9256 45.1378 72.9256C46.5992 72.9256 47.7831 74.1095 47.7831 75.571Z" fill="#ACB3BA"/>
</g>
<defs>
<clipPath id="clip0_1_268">
<rect width="66" height="66" fill="white" transform="translate(30.0002 25)"/>
</clipPath>
</defs>
</svg>
