<svg width="116" height="116" viewBox="0 0 116 116" fill="none" xmlns="http://www.w3.org/2000/svg">
<circle cx="58.0002" cy="58" r="58" fill="white"/>
<circle cx="58.0002" cy="58" r="50" fill="#D6EA01"/>
<mask id="mask0_1_290" style="mask-type:alpha" maskUnits="userSpaceOnUse" x="8" y="8" width="101" height="100">
<circle cx="58.0002" cy="58" r="50" fill="#D6EA01"/>
</mask>
<g mask="url(#mask0_1_290)">
<path d="M110 69.5L86.0002 39.5L37.0002 80L66.0002 112.5L110 91.5V69.5Z" fill="#B9C62F"/>
</g>
<path d="M57.3962 92.5383C57.7906 92.6542 58.2101 92.6542 58.6045 92.5383C65.7841 90.4968 72.2589 86.5085 77.3121 81.0149C90.3869 66.6588 88.6746 47.2154 87.7577 41.1899C87.69 40.7235 87.4767 40.2903 87.1482 39.9523C86.8197 39.6143 86.3928 39.3888 85.9285 39.3078C81.7627 38.5884 77.6819 37.4428 73.7504 35.8889C68.6057 33.8548 63.7558 31.1428 59.329 27.8249C58.9464 27.5358 58.4799 27.3794 58.0004 27.3794C57.5208 27.3794 57.0543 27.5358 56.6717 27.8249C52.245 31.1428 47.395 33.8548 42.2504 35.8889C38.3188 37.4424 34.238 38.5877 30.0722 39.3067C29.6079 39.3876 29.181 39.6132 28.8525 39.9512C28.524 40.2892 28.3107 40.7224 28.243 41.1888C27.3306 47.2154 25.6139 66.6588 38.6886 81.0138C43.7417 86.5078 50.2165 90.4965 57.3962 92.5383Z" fill="#6A65CB"/>
<path d="M77.3165 81.015C72.2623 86.5073 65.7873 90.4943 58.6077 92.535C58.4115 92.5978 58.2063 92.6282 58.0002 92.625V27.375C58.4797 27.3779 58.9454 27.5358 59.3277 27.825C63.7557 31.1423 68.6059 33.8549 73.7502 35.8913C77.6813 37.4411 81.7598 38.587 85.9227 39.3113C86.3884 39.3888 86.8172 39.6128 87.147 39.9506C87.4767 40.2885 87.6902 40.7226 87.7565 41.19C88.6677 47.22 90.389 66.66 77.3165 81.015Z" fill="#A2AEE6"/>
<path d="M79.0602 78.945C78.5202 79.6425 77.9352 80.34 77.3165 81.015C76.1716 82.2667 74.9506 83.4464 73.6602 84.5475C72.2652 82.8263 70.049 82.14 65.8752 81.375C73.469 79.98 74.6052 78.8438 76.0002 71.25C76.754 75.3338 77.429 77.55 79.0602 78.945Z" fill="#645CFF"/>
<path d="M58.0005 90.375C51.2304 88.4411 45.124 84.6795 40.3515 79.503C27.9146 65.8466 29.6415 46.9905 30.4672 41.5286C34.7801 40.779 39.0053 39.5917 43.0773 37.9849C48.4084 35.8752 53.4343 33.0638 58.0218 29.625C62.5886 33.072 67.6015 35.8842 72.9236 37.9849C76.9988 39.5933 81.228 40.7803 85.545 41.5275C86.3595 46.9849 88.0863 65.8466 75.645 79.503C70.8733 84.6784 64.7687 88.4399 58.0005 90.375Z" fill="#645CFF"/>
<path d="M77.6428 77.1112C77.024 77.9212 76.3603 78.72 75.6515 79.4963C74.4767 80.7826 73.2137 81.9855 71.8715 83.0962C69.9707 82.2243 67.9492 81.644 65.8753 81.375C73.469 79.98 74.6053 78.8437 76.0003 71.25C76.2684 73.2715 76.8214 75.2448 77.6428 77.1112ZM52.3753 40.875C44.7815 42.27 43.6453 43.4062 42.2503 51C40.9115 43.6875 39.809 42.36 32.9465 41.0325C36.4007 40.3007 39.7876 39.2809 43.0715 37.9837C43.5103 37.8037 43.949 37.6237 44.3878 37.4325C45.7603 39.3562 47.999 40.065 52.3753 40.875Z" fill="#6A65CB"/>
<path d="M58.6945 84.6308C58.2454 84.7894 57.7554 84.7894 57.3063 84.6308C52.093 82.8331 47.4041 79.7764 43.6555 75.732C35.0571 66.3551 34.0806 54.0746 34.4361 46.6969C34.4555 46.194 34.6363 45.7107 34.9518 45.3187C35.2673 44.9266 35.7007 44.6465 36.1878 44.52C39.0845 43.8003 41.9312 42.8924 44.7096 41.802C48.9438 40.1401 53.0028 38.0626 56.827 35.5999C57.1756 35.371 57.5834 35.249 58.0004 35.249C58.4174 35.249 58.8252 35.371 59.1738 35.5999C62.9985 38.0627 67.0578 40.1406 71.2923 41.8031C74.0706 42.8927 76.9168 43.8002 79.813 44.52C80.3001 44.6465 80.7335 44.9266 81.049 45.3187C81.3645 45.7107 81.5453 46.194 81.5646 46.6969C81.9201 54.0746 80.9436 66.3551 72.3453 75.732C68.5967 79.7764 63.9077 82.8331 58.6945 84.6308Z" fill="#E0E8EF"/>
<path d="M52.3754 40.875C44.7816 42.27 43.6454 43.4063 42.2504 51C41.5529 47.1975 40.9116 45.0038 39.5054 43.5975C41.2716 43.0688 43.0079 42.4688 44.7141 41.7975C46.0754 41.2688 47.4141 40.695 48.7304 40.0763C49.7429 40.3575 50.9466 40.6163 52.3754 40.875ZM72.3441 75.7275C68.598 79.7727 63.9103 82.8296 58.6979 84.6262C58.4397 84.724 58.1629 84.7624 57.8879 84.7388C62.0887 82.9071 65.8624 80.2214 68.9691 76.8525C77.5641 67.4813 78.5429 55.1963 78.1941 47.8163C78.1725 47.3142 77.9903 46.8323 77.6744 46.4414C77.3585 46.0506 76.9255 45.7714 76.4391 45.645C73.5402 44.9249 70.6916 44.0154 67.9116 42.9225C63.6778 41.2622 59.6191 39.1857 55.7954 36.7238C55.6612 36.637 55.5178 36.5653 55.3679 36.51C55.8629 36.2175 56.3466 35.9138 56.8304 35.5988C57.1788 35.3729 57.5851 35.2527 58.0004 35.2527C58.4156 35.2527 58.8219 35.3729 59.1704 35.5988C62.9941 38.0607 67.0528 40.1372 71.2866 41.7975C74.0666 42.8904 76.9152 43.7999 79.8141 44.52C80.3005 44.6464 80.7335 44.9256 81.0494 45.3164C81.3653 45.7073 81.5475 46.1892 81.5691 46.6913C81.9179 54.0713 80.9391 66.3562 72.3441 75.7275Z" fill="#C1D0DB"/>
<path d="M44.0796 60.5153L45.4869 59.0786C45.7073 58.8505 45.9713 58.6691 46.2632 58.5452C46.5552 58.4213 46.8691 58.3574 47.1863 58.3574C47.5034 58.3574 47.8173 58.4213 48.1093 58.5452C48.4012 58.6691 48.6652 58.8505 48.8856 59.0786L52.6959 62.9689C52.9168 63.196 53.181 63.3766 53.4729 63.4999C53.7648 63.6232 54.0784 63.6867 54.3953 63.6867C54.7121 63.6867 55.0257 63.6232 55.3176 63.4999C55.6095 63.3766 55.8737 63.196 56.0946 62.9689L67.1196 51.7189C67.3399 51.4908 67.6039 51.3093 67.8959 51.1854C68.1878 51.0615 68.5017 50.9977 68.8189 50.9977C69.136 50.9977 69.4499 51.0615 69.7419 51.1854C70.0338 51.3093 70.2979 51.4908 70.5182 51.7189L71.9256 53.1555C72.3772 53.62 72.6299 54.2424 72.6299 54.8903C72.6299 55.5382 72.3772 56.1605 71.9256 56.625L56.0946 72.7811C55.8742 73.0093 55.6102 73.1907 55.3183 73.3146C55.0263 73.4385 54.7124 73.5024 54.3953 73.5024C54.0781 73.5024 53.7642 73.4385 53.4722 73.3146C53.1803 73.1907 52.9163 73.0093 52.6959 72.7811L44.0796 63.9848C43.6279 63.5202 43.3752 62.8979 43.3752 62.25C43.3752 61.6021 43.6279 60.9798 44.0796 60.5153Z" fill="#C1D0DB"/>
<path d="M46.3296 59.3903L47.7369 57.9536C47.9573 57.7255 48.2213 57.5441 48.5132 57.4202C48.8052 57.2963 49.1191 57.2324 49.4363 57.2324C49.7534 57.2324 50.0673 57.2963 50.3593 57.4202C50.6512 57.5441 50.9152 57.7255 51.1356 57.9536L54.9459 61.8439C55.1668 62.071 55.431 62.2516 55.7229 62.3749C56.0148 62.4982 56.3284 62.5617 56.6453 62.5617C56.9621 62.5617 57.2757 62.4982 57.5676 62.3749C57.8595 62.2516 58.1237 62.071 58.3446 61.8439L69.3696 50.5939C69.5899 50.3658 69.8539 50.1843 70.1459 50.0604C70.4378 49.9365 70.7517 49.8727 71.0689 49.8727C71.386 49.8727 71.6999 49.9365 71.9919 50.0604C72.2838 50.1843 72.5479 50.3658 72.7682 50.5939L74.1756 52.0305C74.6272 52.495 74.8799 53.1174 74.8799 53.7653C74.8799 54.4132 74.6272 55.0355 74.1756 55.5L58.3446 71.6561C58.1242 71.8843 57.8602 72.0657 57.5683 72.1896C57.2763 72.3135 56.9624 72.3774 56.6453 72.3774C56.3281 72.3774 56.0142 72.3135 55.7222 72.1896C55.4303 72.0657 55.1663 71.8843 54.9459 71.6561L46.3296 62.8598C45.8779 62.3952 45.6252 61.7729 45.6252 61.125C45.6252 60.4771 45.8779 59.8548 46.3296 59.3903Z" fill="#645CFF"/>
<path d="M74.1667 55.5L72.3667 57.3337C72.5392 56.7378 72.6263 56.1204 72.6255 55.5C72.6253 54.4632 72.3856 53.4405 71.9251 52.5116C71.4645 51.5827 70.7956 50.7728 69.9705 50.145C70.4216 49.908 70.9374 49.8238 71.4405 49.9049C71.9436 49.986 72.4067 50.2282 72.7605 50.595L74.1667 52.035C74.6202 52.4976 74.8742 53.1197 74.8742 53.7675C74.8742 54.4153 74.6202 55.0373 74.1667 55.5Z" fill="#A2AEE6"/>
<path d="M47.8755 62.25C47.8773 63.1183 48.0023 63.9819 48.2467 64.815L46.3342 62.8575C45.8807 62.3949 45.6267 61.7729 45.6267 61.125C45.6267 60.4772 45.8807 59.8552 46.3342 59.3925L47.7405 57.9525C48.1809 57.5054 48.778 57.2472 49.4055 57.2325C48.4045 58.7141 47.8715 60.462 47.8755 62.25Z" fill="#6A65CB"/>
<path d="M53.5002 39.75C45.9065 41.1484 44.7736 42.2812 43.3752 49.875C41.9769 42.2812 40.844 41.1484 33.2502 39.75C40.844 38.3516 41.9769 37.2188 43.3752 29.625C44.7736 37.2188 45.9065 38.3516 53.5002 39.75Z" fill="#FFBB63"/>
<path d="M43.3753 45.0476C43.0412 43.7742 42.3745 42.6125 41.4436 41.6816C40.5127 40.7507 39.351 40.0841 38.0776 39.75C39.351 39.4159 40.5127 38.7492 41.4436 37.8183C42.3745 36.8874 43.0412 35.7258 43.3753 34.4524C43.7094 35.7258 44.376 36.8874 45.3069 37.8183C46.2378 38.7492 47.3995 39.4159 48.6729 39.75C47.3995 40.0841 46.2378 40.7507 45.3069 41.6816C44.376 42.6125 43.7094 43.7742 43.3753 45.0476Z" fill="#F49F69"/>
<path d="M43.3753 42.3375C42.7369 41.2768 41.8485 40.3885 40.7878 39.75C41.8485 39.1115 42.7369 38.2232 43.3753 37.1625C44.0138 38.2232 44.9021 39.1115 45.9628 39.75C44.9021 40.3885 44.0138 41.2768 43.3753 42.3375Z" fill="#D2824C"/>
<path d="M88.3752 80.25C80.7815 81.6484 79.6486 82.7812 78.2502 90.375C76.8519 82.7812 75.719 81.6484 68.1252 80.25C75.719 78.8516 76.8519 77.7188 78.2502 70.125C79.6486 77.7188 80.7815 78.8516 88.3752 80.25Z" fill="#FFBB63"/>
<path d="M78.2503 85.5476C77.9162 84.2742 77.2495 83.1125 76.3186 82.1816C75.3877 81.2507 74.226 80.5841 72.9526 80.25C74.226 79.9159 75.3877 79.2492 76.3186 78.3183C77.2495 77.3874 77.9162 76.2258 78.2503 74.9524C78.5844 76.2258 79.251 77.3874 80.1819 78.3183C81.1128 79.2492 82.2745 79.9159 83.5479 80.25C82.2745 80.5841 81.1128 81.2507 80.1819 82.1816C79.251 83.1125 78.5844 84.2742 78.2503 85.5476Z" fill="#F49F69"/>
<path d="M78.2503 82.8375C77.6119 81.7768 76.7235 80.8885 75.6628 80.25C76.7235 79.6115 77.6119 78.7232 78.2503 77.6625C78.8888 78.7232 79.7771 79.6115 80.8378 80.25C79.7771 80.8885 78.8888 81.7768 78.2503 82.8375Z" fill="#D2824C"/>
</svg>
