<svg width="40" height="40" viewBox="0 0 40 40" fill="none" xmlns="http://www.w3.org/2000/svg">
<g clip-path="url(#clip0_1_84)">
<path d="M9.37497 26.502V38.8273C9.37497 39.9502 10.8109 40.4288 11.4841 39.5299L17.5048 31.5042L19.3401 30.5638L39.2124 2.46634L39.582 0.281494L36.3532 2.06579L9.36841 25.4912L9.37497 26.502Z" fill="#FE9923"/>
<path d="M38.3779 0.0934508C38.325 0.114623 0.69789 19.0064 0.646796 19.032C-0.173751 19.4423 -0.22422 20.5964 0.556405 21.0782L9.37406 26.505L39.5811 0.284545C39.274 0.0184508 38.833 -0.0951429 38.3779 0.0934508Z" fill="#FEDB41"/>
<path d="M39.6223 0.338994C39.6054 0.32251 39.5999 0.296963 39.5821 0.281494L39.3528 0.606494L17.5049 31.5042L31.0261 39.8252C31.7303 40.2581 32.6417 39.8453 32.7919 39.0435L39.9811 1.38813C40.0575 0.990713 39.8964 0.605791 39.6223 0.338994Z" fill="#FFCC33"/>
</g>
<defs>
<clipPath id="clip0_1_84">
<rect width="40" height="40" fill="white"/>
</clipPath>
</defs>
</svg>
