<svg width="204" height="232" viewBox="0 0 204 232" fill="none" xmlns="http://www.w3.org/2000/svg">
<path d="M3.66992 229C50.0033 222.333 142.07 189.8 139.67 113" stroke="black" stroke-width="2" stroke-dasharray="4 4"/>
<circle cx="3.66992" cy="229" r="3" fill="black"/>
<circle cx="143" cy="63" r="61" fill="black"/>
<circle cx="140" cy="61" r="61" fill="#D6EA01"/>
<path d="M178.996 62.5438C178.996 65.8862 178.583 69.2287 177.718 72.4728C176.44 77.4077 174.179 82.1658 170.896 86.4519C157.663 103.793 132.89 107.116 115.529 93.8642C109.709 89.4219 105.239 83.449 102.618 76.6127C99.9962 69.7764 99.3272 62.3458 100.685 55.1512C101.236 52.1627 102.16 49.2332 103.438 46.4216C106.666 39.1984 111.979 33.1047 118.695 28.9231C122.175 26.7603 125.97 25.1678 129.882 24.1847C141.148 21.3732 153.535 23.5359 163.444 31.1055C165.587 32.7374 167.533 34.5462 169.244 36.5123C175.673 43.8263 178.996 53.1261 178.996 62.5438Z" fill="#F3F1FC"/>
<path d="M177.718 72.4785C176.399 77.542 174.082 82.2912 170.903 86.4478C157.658 103.795 132.885 107.118 115.537 93.8719C103.292 84.5249 98.0035 69.3976 100.679 55.1431C101.24 52.1625 102.154 49.231 103.444 46.4175C103.21 47.2688 103.021 48.128 102.856 48.9852C101.498 56.1845 102.167 63.6196 104.788 70.4609C107.409 77.3022 111.879 83.2808 117.7 87.7297C135.049 100.974 159.822 97.6508 173.066 80.3037C174.914 77.8835 176.475 75.2576 177.718 72.4785Z" fill="#DEDFFB"/>
<path d="M177.714 72.4727C176.408 77.5418 174.094 82.2961 170.911 86.4518C170.112 87.509 169.255 88.5211 168.343 89.4836C165.198 90.6632 161.849 91.5441 158.344 92.1575C164.14 89.4672 169.192 85.4029 173.062 80.3175C174.914 77.8932 176.475 75.2603 177.714 72.4727Z" fill="#78E75A"/>
<path d="M163.454 31.1113C165.56 32.7091 167.498 34.5175 169.238 36.5083C175.667 43.8223 179.002 53.1339 179 62.5457C179.009 65.8985 178.578 69.2379 177.718 72.4786C176.475 75.2576 174.915 77.8835 173.068 80.3038C159.822 97.6509 135.049 100.974 117.702 87.7298C111.881 83.2809 107.411 77.3023 104.79 70.461C102.169 63.6197 101.5 56.1847 102.858 48.9853C103.021 48.1281 103.212 47.2689 103.444 46.4176C106.659 39.1932 111.968 33.1001 118.685 28.9269C122.151 26.7801 125.927 25.1812 129.88 24.1866C141.154 21.3672 153.525 23.5319 163.454 31.1113Z" fill="#F3F1FC"/>
<path d="M169.248 36.4965C167.499 34.5236 165.563 32.7248 163.467 31.125C161.853 29.894 160.151 28.7815 158.375 27.7964C157.968 28.4138 157.685 29.0881 157.876 29.9631C157.197 30.2049 156.558 30.4762 155.811 30.7652C155.601 30.606 155.267 30.3504 154.897 30.1007C154.795 30.1892 154.691 30.2403 154.622 30.2875C154.818 31.1978 155.046 32.0668 155.277 32.9358C154.673 32.9044 153.999 32.9201 153.546 32.9044C153.436 33.1816 153.407 33.5237 153.259 33.5434C152.027 33.858 151.175 35.6216 149.628 34.7034C149.557 35.014 149.533 35.3915 149.471 35.7749C149.404 35.8221 149.298 35.8732 149.229 35.9204C148.546 34.1765 147.164 34.2099 145.768 34.436C144.669 34.6208 143.586 34.9157 142.542 35.2421C142.182 35.366 141.832 35.826 141.657 36.1858C141.339 36.9035 141.181 37.6742 140.896 38.3486C140.497 39.2963 138.427 41.7755 141.256 42.4263C141.315 45.116 139.215 46.221 137.432 47.7349C138.114 48.5135 138.097 48.307 138.718 49.7757C138.327 49.9389 137.943 50.1414 137.538 50.1965C136.097 50.3518 135.857 50.5327 136.014 51.9738C136.093 52.5637 136.467 53.1142 136.693 53.6844C136.801 53.9301 137.007 54.3528 136.876 54.4826C136.014 55.6112 136.168 57.3138 134.815 58.1317C134.54 58.3205 134.327 58.6862 134.182 59.0047C133.219 61.6079 133.146 64.6907 136.14 66.6136C137.489 67.4453 138.732 67.7658 140.218 67.1169C140.851 66.8063 141.531 66.5664 142.263 66.4288C144.079 66.0002 144.994 66.6647 145.462 68.4736C145.572 69.0241 145.91 69.5766 146.299 69.9737C147.363 70.9175 147.843 71.9792 147.542 73.3692C146.97 76.2712 148.574 78.2334 150.367 81.5739C151.246 83.1055 152.378 83.4417 153.847 82.38C157.38 79.8633 156.885 76.7018 158.682 73.9748C159.358 72.8718 159.633 71.8592 159.03 70.7032C158.271 69.2325 158.534 67.8464 159.49 66.5939C160.243 65.6109 161.031 65.1705 162.056 61.6767C162.292 60.9335 161.816 60.7329 161.179 61.0082C160.715 61.1812 160.302 61.4604 159.862 61.5213C159.449 61.539 159.042 61.2933 158.613 61.1635C158.629 61.0121 158.613 60.9 158.637 60.786C160.909 60.4065 162.488 59.0322 163.629 57.1919C163.904 56.7437 163.971 55.8353 163.695 55.4598C163.414 55.0469 162.467 54.6871 162.083 54.8896C160.567 55.6171 159.911 54.3548 159.002 53.7276C158.918 53.6627 158.991 53.3541 159.014 52.9766C160.351 54.2939 161.818 54.3234 163.406 54.1484C166.21 53.8102 168.68 54.3411 170.323 57.0818C170.913 58.1278 171.955 58.9241 172.789 59.8246C173.156 59.2131 173.172 58.7629 173.265 58.3362C173.717 56.9639 174.13 55.56 174.702 54.2467C174.879 53.8849 175.823 53.645 176.326 53.765C177.059 53.9301 177.684 54.4079 178.239 54.8955C176.943 48.0683 173.838 41.7141 169.248 36.4965ZM149.343 36.2055C148.668 37.6074 148.175 37.5621 146.932 36.117C147.762 36.1564 148.513 36.1662 149.343 36.2055ZM143.7 39.6973C143.539 39.0446 143.777 38.3014 143.908 37.6093C143.961 37.452 144.4 37.3557 144.683 37.2417C144.718 37.5012 144.827 37.7489 144.821 37.9731C144.813 38.1992 144.616 38.4135 144.608 38.6396C144.636 39.1232 144.701 39.603 144.766 40.0807C145.175 40.0611 145.58 40.008 145.985 39.9549L147.2 39.7917C146.838 40.1771 146.787 40.3344 146.643 40.3914C145.523 40.6922 145.072 41.5376 144.764 42.5934C144.514 43.5254 143.828 43.9914 142.626 43.7043C143.777 42.4991 144.017 41.2309 143.7 39.6973ZM151.741 53.8004C150.745 53.9341 149.758 53.8417 148.773 53.7492C148.2 53.6765 147.65 53.4878 147.459 54.2998C147.42 54.4488 147.332 54.58 147.208 54.6714C146.071 54.2978 144.337 54.2309 143.899 53.4661C143.265 52.3887 142.737 52.3474 141.873 52.6128C140.898 52.894 139.98 53.3167 139.048 53.6293C138.688 53.7532 138.273 53.7335 137.648 53.8181C138.806 52.3867 139.772 51.209 140.743 50.0647C141.459 49.2586 142.188 48.8221 143.179 49.7757C143.731 50.2653 144.516 50.5346 145.328 50.9888C144.931 51.3781 144.703 51.6337 144.404 51.9365C145.554 52.1193 146.138 50.8787 145.32 50.0883C144.85 49.6656 144.349 49.2822 143.724 48.8044C145.228 49.1269 145.818 49.6106 147.862 51.9974C148.031 51.2995 148.138 50.686 148.332 49.9094C148.627 50.1709 148.916 50.3577 149.103 50.631C149.636 51.5354 150.381 51.7713 151.356 51.4921C152.04 51.2877 152.73 51.1186 152.937 52.1036C153.143 53.0867 152.63 53.7198 151.741 53.8004ZM153.763 55.1806C155.75 56.6001 157.351 58.1848 158.44 60.438C156.458 59.915 153.942 57.0681 153.763 55.1806ZM131.982 74.1812C131.447 75.5477 131.127 78.6994 129.929 79.5546C128.775 80.4591 128.16 81.4421 128.124 82.8695C128.124 83.9942 127.729 84.9477 126.744 85.1542C126.603 85.7735 126.618 86.4459 126.374 86.5894C124.623 87.5017 125.195 88.9606 125.27 90.3742C125.305 91.1961 125.474 91.8842 125.783 92.5173L125.82 92.5134C126.196 93.3628 126.809 94.0293 127.713 94.6211C127.619 94.7449 127.56 94.8668 127.464 94.9907C126.998 94.8668 126.371 94.9514 126.068 94.6545C124.786 93.4748 123.174 92.3443 122.523 90.8559C121.982 89.6173 121.009 88.5103 120.753 87.1596C120.478 85.6575 120.201 84.1573 119.961 82.6533C119.578 80.3431 118.817 78.3081 116.648 76.9515C115.545 76.2732 114.678 75.1151 113.724 74.1557C112.765 73.1608 112.728 72.0401 113.394 70.8644C114.361 69.3505 114.837 67.3843 113.099 68.0921C112.35 68.3812 111.8 68.1904 111.42 67.6045C110.618 66.3639 109.391 65.8901 108.038 65.5853C107.535 65.4654 107.032 65.3455 106.524 65.1882C105.013 64.8284 104.102 63.9004 103.815 62.3275C103.595 61.2323 103.263 60.1529 102.966 59.0676L102.561 59.1227L102.956 62.0679C102.852 62.119 102.708 62.1761 102.602 62.2272C102.244 61.2264 101.78 60.2768 101.572 59.2918C101.051 57.0759 100.915 54.9564 102.331 52.9313C102.39 52.8114 102.486 52.6856 102.58 52.5597C103.676 51.2149 103.548 49.4316 103.284 47.7427L103.231 47.3377L103.444 46.4097C104.682 43.5994 106.251 40.9473 108.119 38.5098C108.375 38.1756 108.597 37.8846 108.862 37.625C109.118 37.5897 109.452 37.5464 109.741 37.4678C110.968 37.1158 112.061 37.7194 112.936 38.6514C113.072 38.8205 113.29 39.0544 113.479 39.0643C114.666 38.9817 115.964 39.1449 117.024 38.6651C117.698 38.3879 118.066 37.2141 118.439 36.3766C118.821 35.5763 118.998 34.6523 119.841 34.8017C119.57 35.2873 119.049 35.8831 118.948 36.5319C118.886 37.1787 119.21 37.9219 119.342 38.616C119.489 38.5963 119.603 38.6199 119.755 38.6356C119.798 38.1048 119.949 37.5602 119.953 37.0352C119.935 36.0639 120.158 35.2087 121.127 34.8921C122.098 34.5736 122.792 35.0062 123.384 35.7887C123.801 36.3687 124.454 36.7698 124.796 37.3616C125.173 37.9475 125.305 38.6415 125.612 39.5381C125.441 39.9352 125.047 40.3639 124.393 39.6639C123.86 40.4484 125.093 41.8188 123.6 41.8699C122.896 41.9269 122.189 41.1228 121.414 40.6627C121.886 40.2616 122.334 39.9765 122.574 39.5322C122.82 39.1252 122.967 38.5432 122.839 38.148C122.757 37.8217 122.173 37.3754 121.846 37.456C121.514 37.5012 121.296 38.093 120.997 38.3958L119.312 40.0827C119.574 40.3481 119.928 40.7512 120.323 41.1837C118.893 41.7146 118.736 41.6595 118.642 40.3973C117.547 41.4433 116.471 42.3752 115.594 43.3917C113.475 45.9418 118.398 44.9292 117.562 48.0023C118.461 46.8698 119.792 46.1659 119.827 44.475C119.839 43.724 120.26 42.9552 120.655 42.2651C121.029 41.689 121.923 41.9446 122.322 42.678C122.523 43.0634 122.651 43.4585 122.832 43.9599C123.716 43.4153 123.268 43.836 124.196 42.9513C124.727 45.2418 125.193 47.3161 125.726 49.6066C125.085 49.5791 124.629 49.528 124.023 49.4965C124.391 48.887 124.627 48.4034 124.9 47.9177L124.758 47.7113C124.32 48.0691 123.895 48.539 123.396 48.7179C122.932 48.8949 122.348 48.7474 121.675 48.7612C122 49.5063 122.289 50.2554 122.629 51.1087C122.423 51.2483 122.057 51.5983 121.752 51.5629C119.631 51.3978 118.646 52.9923 117.509 54.3057C114.847 57.249 114.839 57.5006 113.974 60.9276C113.871 60.939 113.767 60.9276 113.669 60.8941C113.567 60.6818 113.416 60.4026 113.424 60.1765C113.561 58.9575 112.806 58.6488 111.864 58.8867C110.636 59.2406 109.434 59.7754 108.272 60.3417C107.958 60.499 107.653 61.0259 107.596 61.4466C107.553 62.239 107.661 63.049 107.69 63.8315C108.377 63.6271 109.029 63.4658 109.71 63.224C110.03 63.106 110.305 62.9193 110.934 62.5732C110.689 63.5425 110.547 64.1618 110.388 64.9326C110.887 65.0151 111.422 65.0938 111.921 65.1764C111.977 65.3199 112.028 65.4241 112.043 65.5362C112.122 66.124 112.077 67.1799 112.269 67.229C112.93 67.402 113.793 67.4001 114.389 67.0953C116.194 66.0277 118.03 65.7446 119.979 66.5704C120.454 66.767 120.867 67.0501 121.349 67.286C122.745 67.9093 124.77 68.6033 125.199 69.4311C126.424 71.5722 127.861 70.9823 131.003 71.9143C132.334 72.335 132.446 72.8816 131.982 74.1812Z" fill="#78E75A"/>
<path d="M127.56 65.9548L125.926 62.0442C125.598 62.0501 125.132 62.176 125.034 62.0403C123.907 60.4576 122.627 61.7985 119.029 63.973C118.734 64.1519 118.392 64.2522 117.653 64.5668C117.922 62.4099 118.089 60.5283 118.435 58.6802C118.51 58.2732 119.169 57.9016 119.635 57.6578C122.419 56.1911 120.81 55.9296 122.598 54.4039C122.973 54.0814 123.502 53.9379 124.029 53.8298C125.169 52.0661 125.169 52.0661 127.025 52.2903C127.006 52.5419 126.882 52.8624 126.99 53.0433C127.224 53.4306 127.525 53.9163 127.9 54.0283C128.128 54.0971 128.706 53.6076 128.836 53.2596C129.05 52.6835 129.031 52.0209 129.127 51.2541C129.335 51.3957 129.475 51.4468 129.55 51.5471C130.58 52.9529 131.718 54.2997 132.572 55.8057C132.92 56.4231 132.945 57.5615 132.603 58.1729C131.182 60.7033 129.565 63.1256 128.01 65.5813C127.932 65.7071 127.774 65.7799 127.56 65.9548ZM139.017 28.9583C137.654 30.6885 137.273 31.9468 137.426 33.9621C137.713 37.6977 132.641 37.0174 130.859 41.4078C130.67 41.8777 129.988 42.4931 129.577 42.4596C128.669 42.3869 128.103 41.6555 128.158 40.6901C128.197 39.9784 128.295 39.2391 128.545 38.5805C129.155 36.9722 128.441 35.5409 128.014 34.0899C127.922 33.7713 127.281 33.618 126.894 33.386C126.555 33.1854 125.93 32.9652 125.94 32.7824C125.969 32.2849 126.154 31.6971 126.485 31.3373C127.983 29.7113 129.119 29.7329 130.743 29.4026C131.274 29.2945 131.929 29.4026 132.332 29.1234C133.698 28.1816 135.118 28.042 136.669 28.4628C137.397 28.6594 138.144 28.7774 139.017 28.9583ZM123.122 31.1623L124.847 30.2815L122.861 30.0652C124.444 28.3999 126.353 28.9779 128.299 29.3181C128.223 29.3653 126.557 30.427 126.49 30.4899C125.712 31.2134 125.063 32.1788 124.155 32.629C123.29 33.0616 122.161 32.9633 121.133 33.3368L123.071 33.9739L123.012 34.4261C122.147 34.314 121.243 34.3081 120.437 34.0328C120.134 33.9286 120.055 33.1835 119.874 32.7313C120.942 32.7765 120.313 32.9849 122.309 32.1001L121.221 30.6845C121.447 30.5154 121.78 30.1556 121.882 30.2127C122.328 30.4604 122.708 30.828 123.122 31.1623ZM111.908 36.4158C112.749 34.3317 113.009 34.253 114.77 35.1869C115.199 35.4131 115.753 35.4032 116.436 35.5369C116.048 36.2958 117.069 37.2868 116.003 38.0123C115.148 38.5962 114.133 38.9796 113.231 38.3033C112.838 38.0083 112.826 37.2003 112.568 36.4059L111.908 36.4158ZM141.618 87.0514L139.76 87.9066C140.456 85.9602 141.118 85.6456 142.882 86.0113C143.486 86.1352 144.168 85.8285 144.793 85.8973C147.025 86.145 148.906 87.1929 150.65 88.5063L150.517 88.99C150.068 88.872 149.52 88.874 149.189 88.6085C148.438 88.003 147.858 87.9538 147.05 88.5692C146.354 89.1001 145.438 89.6545 144.992 88.1445C144.901 87.8398 144.054 87.6746 141.618 87.0514ZM162.999 70.7561C163.566 72.9955 163.324 74.767 162.384 76.4107C162.215 76.7076 161.546 76.9789 161.248 76.8708C160.919 76.7528 160.51 76.1472 160.561 75.8209C160.707 75.003 160.972 74.2112 161.35 73.4713C161.767 72.6239 162.325 71.8473 162.999 70.7561ZM135.155 86.2256C135.016 88.4729 135.281 89.7528 132.943 89.6073C130.784 89.4697 131.793 86.8823 132.884 85.0263C133.101 84.6586 133.777 84.2339 134.092 84.3303C134.467 84.4443 134.707 85.0774 134.949 85.5158C135.057 85.7124 135.027 85.9818 135.057 86.2197L135.155 86.2256ZM136.954 47.0289L137.279 44.8308L136.903 44.705C136.801 44.9743 136.734 45.2653 136.587 45.5071C136.439 45.747 136.185 46.1284 136.02 46.1088C135.717 46.0695 135.303 45.8375 135.206 45.5838C135.126 45.3715 135.375 44.8111 135.58 44.7522C136.396 44.5162 136.879 44.241 136.469 43.2579C136.394 43.077 136.866 42.6681 137.176 42.2414C137.737 43.5155 138.315 44.4926 138.588 45.5484C138.905 46.7714 137.66 46.504 136.954 47.0289ZM133.425 78.4594C134.717 79.6116 136.034 80.7362 137.279 81.9355C137.589 82.2324 137.668 82.7711 137.855 83.1978C137.343 83.125 136.811 83.1231 136.335 82.954C136.06 82.8557 135.871 82.5018 135.66 82.2462C133.321 79.4385 133.942 80.2702 133.108 78.4555L133.427 78.4614L133.425 78.4594ZM142.935 31.8249L141.636 32.5936L140.67 31.7914C141.004 31.4454 141.284 30.9853 141.693 30.7809C142.276 30.4879 142.957 30.3837 143.816 30.132L142.935 31.8249ZM115.753 31.8819L116.221 33.4351L117.303 32.8315C117.484 33.9915 116.143 34.7819 115.256 34.082C114.833 33.7477 114.474 33.3349 113.996 32.8689L115.753 31.8819ZM153.082 28.4884C152.581 29.3515 152.194 30.0337 151.791 30.7081C151.309 31.5142 151.561 32.1395 152.414 32.6644C151.338 32.9023 150.947 32.4068 150.829 31.5968C150.636 30.2736 151.541 28.9268 153.082 28.4884ZM139.278 87.2559L137.57 87.6039L138.264 88.8877C137.461 89.1374 136.628 90.2306 136.099 88.5574C135.818 87.6687 135.733 86.9413 137.08 87.0474C137.792 87.1025 138.517 86.9668 139.237 86.9157L139.278 87.2559ZM137.446 38.2915L138.793 38.7948C138.34 39.2234 137.951 39.8152 137.414 40.0158C137.121 40.1259 136.581 39.5714 136.152 39.3158L137.446 38.2934V38.2915Z" fill="#78E75A"/>
<path d="M137.633 53.82C138.816 52.3847 139.756 51.1933 140.755 50.0568C141.443 49.2704 142.18 48.8339 143.185 49.7659C143.739 50.279 144.528 50.5385 145.318 50.9711L144.416 51.9404C145.57 52.1331 146.122 50.8905 145.31 50.1001C144.858 49.6597 144.335 49.2979 143.733 48.8123C145.212 49.1308 145.818 49.6046 147.862 52.0033L148.324 49.9035C148.611 50.1728 148.928 50.3675 149.101 50.6486C149.646 51.5295 150.383 51.7811 151.352 51.5C152.031 51.3034 152.742 51.1068 152.945 52.1114C153.147 53.0945 152.642 53.7197 151.732 53.8161C150.756 53.9203 149.752 53.8357 148.769 53.7473C148.193 53.6942 147.644 53.4838 147.463 54.3037C147.432 54.4413 147.251 54.6753 147.202 54.6595C146.053 54.3056 144.357 54.2447 143.908 53.4681C143.277 52.3749 142.741 52.3415 141.864 52.603C140.908 52.892 139.996 53.3049 139.048 53.6175C138.69 53.7355 138.291 53.7315 137.633 53.82ZM147.182 39.7838C146.852 40.1672 146.773 40.352 146.651 40.3855C145.511 40.7 145.078 41.5376 144.768 42.6033C144.502 43.5096 143.814 43.9992 142.636 43.6886C143.763 42.4892 144.03 41.2112 143.686 39.7072C143.537 39.0544 143.759 38.2974 143.918 37.6113C143.958 37.4402 144.408 37.3635 144.669 37.2436C144.728 37.4854 144.838 37.7292 144.829 37.9671C144.821 38.1952 144.618 38.4193 144.622 38.6435C144.63 39.1291 144.715 39.6108 144.768 40.0945L145.973 39.9451L147.182 39.7838ZM158.454 60.4478C156.458 59.9229 153.926 57.0602 153.772 55.1943C155.739 56.6001 157.361 58.1986 158.454 60.4478ZM149.359 36.2074C148.678 37.6172 148.165 37.5798 146.921 36.1072L149.359 36.2055V36.2074Z" fill="#72D561"/>
</svg>
